<?xml version="1.0" standalone="no"?>
<!DOCTYPE svg PUBLIC "-//W3C//DTD SVG 20010904//EN"
 "http://www.w3.org/TR/2001/REC-SVG-20010904/DTD/svg10.dtd">
<svg version="1.0" xmlns="http://www.w3.org/2000/svg"
 width="600.000000pt" height="600.000000pt" viewBox="0 0 600.000000 600.000000"
 preserveAspectRatio="xMidYMid meet">
<metadata>
Created by potrace 1.14, written by Peter Selinger 2001-2017
</metadata>
<g transform="translate(0.000000,600.000000) scale(0.100000,-0.100000)"
fill="#000000" stroke="none">
<path d="M4676 4413 c-1 -2 -22 -5 -47 -8 -86 -11 -133 -20 -149 -30 -6 -3
-10 0 -10 7 0 10 -2 10 -9 -1 -5 -8 -20 -16 -32 -18 -13 -2 -28 -8 -33 -13
-14 -14 -39 -13 -30 2 4 7 3 8 -5 4 -6 -4 -9 -11 -6 -16 2 -4 -10 -14 -28 -21
-17 -7 -36 -17 -42 -21 -131 -102 -181 -153 -210 -214 -9 -19 -20 -32 -25 -29
-6 3 -7 -1 -4 -9 3 -9 2 -16 -3 -16 -5 0 -10 -6 -10 -13 0 -6 -9 -42 -21 -79
-12 -37 -22 -79 -22 -93 0 -15 -4 -24 -10 -20 -5 3 -10 1 -10 -4 0 -6 4 -11 8
-11 5 0 7 -17 5 -37 -2 -21 -4 -61 -5 -90 -1 -35 -5 -50 -12 -46 -6 4 -5 -1 3
-10 12 -15 11 -17 -5 -17 -17 -1 -18 -1 -2 -11 20 -11 12 -43 -9 -35 -8 3 -11
1 -8 -4 3 -6 14 -10 23 -10 14 0 15 -2 2 -10 -9 -5 -19 -5 -27 2 -7 6 -13 6
-13 2 0 -5 12 -17 28 -26 15 -10 22 -18 17 -18 -6 0 -9 -19 -7 -45 3 -35 1
-45 -11 -45 -22 0 -32 -20 -17 -33 10 -9 12 -8 7 6 -4 11 -1 17 8 17 11 0 13
-27 12 -150 -1 -94 2 -150 8 -150 6 0 6 -3 0 -8 -12 -8 -13 -22 -2 -39 9 -14
-9 -27 -25 -17 -7 4 -8 3 -4 -4 4 -7 15 -12 24 -13 9 0 12 -3 7 -5 -6 -2 -9
-23 -7 -45 4 -33 2 -40 -9 -33 -11 6 -12 5 -3 -7 7 -8 12 -35 12 -61 1 -36 -3
-48 -16 -51 -16 -4 -16 -5 0 -6 14 -1 17 -10 16 -46 0 -30 -4 -42 -12 -38 -8
5 -8 3 0 -8 7 -8 13 -30 16 -50 3 -31 0 -38 -22 -51 -25 -14 -28 -13 -55 14
-16 15 -25 31 -22 35 4 3 14 -2 22 -13 8 -10 14 -14 15 -9 0 6 -13 24 -29 41
-26 28 -29 38 -29 98 0 37 1 65 2 64 1 -2 10 -14 21 -27 15 -19 16 -23 4 -19
-12 5 -15 -2 -15 -37 1 -24 4 -41 9 -38 4 2 7 0 7 -5 0 -14 39 -56 46 -49 4 4
-4 15 -17 25 -21 18 -22 21 -7 35 9 9 19 13 23 9 5 -4 5 -1 1 6 -6 11 -12 10
-29 -5 -17 -15 -20 -16 -14 -2 3 9 0 22 -6 28 -6 6 -7 14 -2 18 4 5 10 2 12
-4 3 -7 9 -13 15 -13 6 0 5 6 -2 15 -12 14 -9 15 21 10 18 -3 31 -3 28 0 -4 3
-16 8 -29 10 -28 5 -50 23 -50 41 0 8 -5 14 -11 14 -5 0 -7 5 -4 10 9 14 35
-7 36 -29 0 -11 2 -12 6 -3 3 7 -1 20 -8 29 -12 14 -11 15 11 9 19 -5 21 -5 9
3 -9 6 -26 9 -38 6 -14 -2 -21 1 -21 11 0 11 6 13 21 9 19 -6 20 -5 8 8 -8 8
-16 13 -19 12 -3 -2 -7 7 -8 21 -1 13 3 24 8 24 6 0 9 -5 7 -11 -1 -6 4 -13
11 -15 7 -1 8 0 2 3 -5 2 -7 9 -4 15 4 7 15 1 26 -13 18 -22 18 -20 -1 12 -11
20 -18 39 -14 42 3 4 0 13 -7 22 -15 18 -7 19 20 3 23 -15 39 -3 20 15 -10 9
-11 9 -6 0 4 -7 3 -13 -3 -13 -15 0 -23 18 -11 25 6 4 5 12 -5 21 -23 23 -18
40 5 19 11 -10 20 -15 20 -12 0 3 -12 17 -27 31 -15 14 -24 29 -20 32 4 4 14
-1 22 -12 8 -10 14 -14 15 -9 0 6 -13 24 -29 41 -24 26 -29 40 -29 83 -1 28 3
49 7 46 5 -2 8 -25 6 -49 -1 -25 2 -43 7 -40 4 3 8 1 8 -4 0 -5 9 -19 20 -32
14 -16 20 -19 22 -9 0 8 2 19 2 24 1 6 10 23 20 38 10 15 16 30 12 34 -3 3 -6
1 -6 -7 0 -10 -3 -10 -17 1 -15 11 -16 11 -5 -1 15 -18 16 -38 0 -22 -9 9 -16
8 -32 -6 -17 -15 -19 -15 -13 -1 3 9 0 22 -6 28 -6 6 -7 14 -3 18 4 4 11 1 16
-7 5 -8 11 -12 15 -9 3 3 -7 19 -22 35 -22 23 -29 40 -31 81 -2 46 0 52 15 47
16 -5 16 -4 3 8 -8 7 -17 28 -18 45 -3 28 -1 32 15 27 16 -5 16 -4 3 8 -11 10
-16 39 -18 117 -1 57 -5 108 -8 112 -7 11 7 11 25 0 8 -5 9 -11 3 -15 -17 -10
-6 -89 14 -103 10 -7 15 -16 11 -19 -4 -4 -15 -1 -24 7 -15 11 -16 11 -6 -1 8
-9 9 -19 2 -31 -7 -14 -5 -26 8 -46 23 -36 43 -57 49 -51 2 3 -9 20 -26 38
-36 39 -36 43 -7 70 21 20 21 22 5 34 -20 15 -25 31 -6 20 7 -4 8 -3 4 4 -4 7
-2 12 3 12 6 0 11 5 11 11 0 8 -6 7 -17 -2 -15 -12 -16 -12 -10 3 3 10 2 20
-3 23 -6 4 -10 11 -10 17 0 7 5 6 14 -1 11 -9 16 -9 22 0 7 12 -31 48 -52 49
-18 0 -11 32 11 55 12 11 13 14 3 6 -10 -8 -19 -10 -19 -5 -8 60 -7 74 1 74 6
0 9 -6 7 -12 -1 -7 9 -14 23 -15 l25 -2 -25 8 c-14 5 -20 10 -15 10 6 1 1 8
-9 16 -21 16 -25 27 -27 88 -1 20 -6 37 -11 37 -4 0 -8 7 -8 16 0 18 -49 115
-64 125 -5 4 -5 12 -1 19 5 8 4 11 -3 6 -6 -3 -18 4 -26 16 -9 12 -34 37 -56
54 -22 17 -36 35 -32 39 4 4 0 5 -8 4 -16 -4 -80 22 -80 31 0 3 -10 6 -22 7
-11 1 -24 6 -27 10 -3 4 -15 9 -26 10 -31 3 -68 10 -85 17 -31 11 -154 21
-348 27 -40 2 -76 7 -78 11 -3 5 -11 5 -17 0 -7 -4 -149 -8 -315 -8 -167 1
-305 -1 -307 -5 -4 -5 -6 -54 -5 -104 3 -161 0 -226 -12 -219 -10 6 -10 4 0
-9 10 -11 14 -45 13 -104 -2 -469 -2 -686 2 -690 10 -9 -6 -43 -17 -36 -6 4
-5 -1 2 -10 11 -13 14 -77 12 -309 0 -161 -1 -306 -2 -323 0 -16 1 -34 2 -40
1 -5 1 -46 0 -90 -2 -112 -2 -139 -1 -150 4 -20 2 -407 -2 -411 -2 -2 0 -28 3
-59 3 -30 2 -55 -3 -55 -4 0 -5 -6 0 -12 4 -7 6 -22 5 -34 -3 -19 2 -20 93
-18 52 1 93 -1 91 -5 -3 -4 0 -13 5 -21 8 -12 9 -11 7 5 -3 18 3 19 110 20 93
0 110 -2 95 -12 -9 -7 -12 -13 -7 -13 6 0 15 5 22 12 16 16 493 19 504 3 5 -6
8 -5 8 3 0 7 4 11 9 8 4 -3 23 -1 40 4 26 7 32 6 28 -5 -7 -16 20 -28 29 -13
4 7 3 8 -4 4 -7 -4 -12 -1 -12 6 0 9 15 13 50 13 28 0 50 4 50 9 0 4 11 5 25
2 14 -4 25 -3 25 2 0 5 6 9 13 10 24 2 47 8 53 15 4 4 14 1 22 -6 9 -6 13 -7
9 -1 -8 14 57 45 78 38 9 -4 15 -3 14 2 -4 21 2 35 11 29 6 -3 10 -2 10 4 0 5
13 18 29 27 17 10 28 21 25 26 -3 4 -1 8 3 8 5 0 17 17 28 37 11 21 23 40 26
43 6 5 12 28 24 90 11 56 16 98 18 157 2 67 11 78 29 38 6 -14 15 -25 20 -25
5 0 6 5 3 10 -3 6 -1 10 4 10 6 0 11 5 11 11 0 8 -5 8 -15 -1 -18 -15 -20 0
-2 20 10 12 9 12 -5 1 -10 -7 -18 -9 -18 -3 0 5 10 17 23 25 l22 16 -22 16
c-27 19 -29 32 -6 57 9 10 11 18 6 18 -6 0 -13 -7 -17 -15 -12 -31 -22 -13
-23 40 0 30 3 55 8 55 5 0 8 -5 7 -11 -2 -6 3 -13 10 -14 7 -2 8 -1 2 2 -6 3
-2 16 10 33 18 25 18 28 3 34 -19 8 -40 -8 -24 -18 15 -10 14 -26 -2 -20 -7 2
-13 22 -14 44 -1 23 2 38 8 34 5 -3 6 -10 3 -16 -4 -7 -2 -8 4 -4 6 4 21 2 33
-5 15 -8 19 -8 15 0 -4 6 -2 11 3 11 6 0 11 5 11 12 0 9 -3 9 -12 0 -7 -7 -17
-12 -22 -12 -6 0 -5 5 1 11 9 9 8 15 -3 26 -8 8 -14 20 -14 26 0 6 10 2 21
-10 20 -20 24 -20 44 -7 22 14 23 14 27 -20 2 -22 0 -32 -7 -28 -5 3 -4 -2 4
-11 12 -15 11 -17 -3 -17 -9 0 -16 5 -16 10 0 6 -5 10 -10 10 -6 0 -5 -8 2
-19 7 -11 16 -17 20 -15 9 6 9 3 14 -86 2 -36 5 -77 7 -93 2 -15 0 -30 -5 -33
-6 -4 -5 -10 2 -14 7 -4 13 -28 14 -53 0 -25 4 -43 8 -41 15 10 8 -30 -9 -50
-17 -20 -17 -20 0 -6 16 12 20 12 27 0 5 -8 6 -18 4 -22 -3 -4 0 -8 6 -8 6 0
8 -4 5 -10 -3 -5 -2 -10 2 -10 5 0 16 -17 26 -37 22 -49 35 -68 74 -110 18
-20 30 -39 27 -44 -3 -5 2 -6 10 -3 10 4 16 1 16 -9 0 -8 8 -17 18 -21 16 -6
71 -42 100 -66 6 -6 12 -7 12 -3 0 4 4 2 9 -5 4 -7 17 -15 27 -17 10 -2 20 -4
22 -5 1 -2 5 -3 10 -5 4 -1 14 -4 22 -8 39 -16 119 -35 124 -30 3 4 6 -2 6
-13 0 -10 4 -15 8 -9 10 13 63 14 59 1 -2 -6 -11 -10 -20 -10 -9 1 -13 -4 -10
-13 5 -11 10 -10 27 6 15 13 34 19 64 18 23 0 42 -4 42 -9 0 -4 10 -4 23 1 25
9 74 8 84 -2 9 -10 25 -9 19 1 -8 13 27 11 43 -2 11 -8 13 -8 7 2 -5 8 -1 12
13 12 10 0 27 3 37 7 12 4 15 3 10 -5 -4 -7 -17 -13 -29 -13 -18 -1 -19 -2 -4
-6 10 -3 26 2 36 11 10 9 21 13 24 9 4 -3 7 -2 7 4 0 5 6 10 13 11 37 3 65 10
86 21 22 12 23 12 17 -5 -6 -18 -6 -18 8 0 8 10 19 15 25 11 7 -4 8 1 4 12 -6
16 -5 17 12 3 10 -8 16 -10 12 -3 -4 6 -3 14 3 18 5 3 10 2 10 -4 0 -6 11 1
25 15 15 14 32 23 40 20 8 -3 15 -1 15 5 0 5 12 21 28 34 20 17 30 20 40 13 9
-8 11 -7 7 3 -7 19 71 104 79 86 4 -6 4 -2 2 11 -3 14 1 22 10 22 8 0 13 3 13
8 -1 4 6 26 16 50 13 30 23 41 33 37 12 -4 12 -3 3 9 -8 10 -9 16 -1 21 6 3 8
11 5 16 -4 5 -1 9 5 9 6 0 8 5 5 10 -4 6 -1 18 7 27 7 9 12 18 11 20 -9 11 -1
24 11 20 10 -4 13 -1 9 8 -3 8 -9 13 -13 10 -7 -4 -7 16 0 35 1 3 2 14 1 26
-1 11 3 32 8 47 8 20 7 27 -2 27 -8 0 -8 3 -2 8 6 4 10 25 9 47 -1 22 3 43 10
48 8 5 8 9 -1 15 -17 11 -9 68 9 64 8 -1 15 4 15 12 0 8 -8 12 -21 9 -17 -4
-18 -3 -6 6 13 10 13 11 0 12 -10 0 -8 3 5 9 l20 9 -20 0 c-17 1 -17 3 -5 11
8 5 10 10 4 10 -7 0 -10 17 -9 43 2 28 7 41 16 39 10 -3 10 0 0 12 -11 13 -15
57 -10 106 1 8 0 22 -2 30 -2 9 2 14 10 12 11 -2 12 0 4 10 -12 14 -16 37 -14
86 1 23 6 32 19 33 15 0 15 1 -2 8 -13 5 -19 18 -20 40 -1 18 2 35 6 37 3 2 3
17 -2 33 -4 16 -6 31 -4 33 7 8 13 78 6 78 -9 0 -8 58 1 67 4 3 7 2 7 -3 0 -6
7 -19 16 -30 15 -18 15 -18 5 3 -14 28 -14 36 1 27 7 -4 8 -3 4 5 -4 6 -12 9
-17 6 -13 -9 -28 37 -19 54 4 8 4 25 -1 38 -5 15 -5 23 2 23 6 0 7 5 2 13 -11
17 -11 30 0 45 6 8 6 12 -2 12 -6 0 -10 9 -8 20 4 28 17 37 17 12 0 -11 4 -23
9 -26 13 -8 1 37 -13 49 -7 6 -12 25 -12 43 1 24 5 31 16 27 13 -4 13 -4 0 7
-8 7 -16 29 -16 48 -3 70 -14 186 -23 222 -7 28 -5 40 8 54 15 17 15 17 -1 5
-15 -11 -19 -11 -24 5 -3 11 -10 28 -15 39 -4 11 -10 27 -11 35 -2 8 -10 22
-19 32 -9 10 -22 31 -30 46 -8 15 -44 57 -80 95 -36 37 -63 70 -60 74 3 3 0 3
-7 -1 -8 -5 -22 0 -35 11 -12 10 -47 30 -77 43 -30 14 -57 27 -60 30 -3 3 -11
5 -17 6 -40 3 -44 5 -37 17 6 9 5 9 -7 0 -9 -8 -20 -9 -29 -3 -8 6 -25 10 -37
10 -13 0 -23 6 -23 13 0 8 -4 7 -10 -3 -5 -8 -10 -10 -10 -5 0 6 -24 10 -53
10 -28 0 -56 1 -61 4 -9 4 -136 8 -140 4z m-1478 -526 c8 -6 9 -14 2 -27 -12
-22 -13 -33 -2 -27 4 3 7 -15 7 -39 0 -24 -3 -44 -7 -44 -11 0 -5 -23 7 -32 6
-5 5 -8 -3 -8 -7 0 -10 -5 -6 -11 9 -15 11 -159 1 -159 -4 0 -3 -9 3 -20 6
-11 7 -20 2 -20 -5 0 -9 -7 -9 -15 0 -8 5 -15 10 -15 5 0 4 -6 -2 -13 -6 -8
-8 -17 -4 -20 9 -10 9 -137 0 -137 -5 0 -5 -5 -1 -11 10 -16 11 -149 1 -149
-4 0 -3 -9 3 -20 6 -11 7 -20 2 -20 -5 0 -9 -7 -9 -15 0 -8 5 -15 10 -15 5 0
4 -6 -2 -13 -6 -8 -8 -17 -4 -20 8 -9 10 -97 2 -97 -3 0 -6 -7 -6 -15 0 -8 5
-15 10 -15 5 0 3 -7 -4 -17 -9 -10 -10 -18 -3 -20 10 -3 10 -63 0 -90 -3 -7
-2 -13 2 -13 9 0 8 -182 -2 -198 -4 -7 -2 -12 5 -12 8 0 8 -4 -1 -15 -7 -8 -9
-15 -4 -15 11 0 11 -121 0 -138 -4 -7 -2 -12 6 -13 10 0 11 -2 0 -6 -10 -4
-10 -8 -1 -19 9 -11 8 -14 -2 -14 -9 0 -10 -3 -2 -11 17 -17 4 -48 -19 -44
-12 3 -17 1 -14 -3 4 -4 11 -7 14 -7 21 -1 31 -17 22 -36 -8 -14 -7 -19 2 -20
7 -1 2 -4 -12 -8 -14 -5 -31 -3 -39 3 -8 6 -12 7 -9 1 10 -17 -132 -11 -143 6
-7 12 -9 12 -9 -1 0 -11 -12 -15 -51 -15 -48 0 -49 1 -30 16 11 9 18 19 15 22
-3 3 -1 8 5 12 6 3 11 -1 11 -9 0 -19 16 -21 26 -4 4 6 3 8 -3 5 -6 -4 -13 0
-17 8 -6 17 -36 9 -36 -10 0 -7 -6 -15 -13 -18 -7 -3 -13 3 -13 13 0 10 4 16
8 14 11 -7 10 4 -3 28 -7 13 -7 18 -1 14 6 -3 13 -2 17 4 3 5 -2 10 -12 11
-10 0 -13 3 -6 6 9 3 10 10 3 24 -7 13 -7 19 0 19 5 0 10 -6 10 -12 0 -9 4 -8
10 2 5 8 10 20 10 25 0 6 -4 4 -9 -3 -6 -10 -10 -10 -21 3 -10 12 -10 15 4 15
9 0 16 5 16 11 0 6 -6 9 -12 6 -10 -3 -12 27 -8 139 3 93 1 144 -5 144 -5 0
-3 5 5 10 9 6 10 10 3 10 -8 0 -9 9 -3 30 5 19 5 30 -1 30 -5 0 -4 6 3 14 7 8
17 11 22 8 5 -3 6 0 2 7 -5 8 -12 9 -19 2 -9 -7 -12 11 -12 70 0 56 4 79 13
79 6 0 12 5 12 11 0 5 -4 8 -9 5 -5 -3 -11 5 -13 19 -3 14 0 26 8 29 16 6 14
30 -4 63 -12 21 -10 22 18 18 17 -2 28 0 25 5 -3 5 -12 7 -20 4 -9 -4 -13 1
-11 13 2 10 -3 28 -11 40 -14 22 -14 22 16 18 17 -2 29 0 26 5 -3 5 -13 6 -22
3 -10 -4 -14 -2 -10 4 4 6 0 16 -8 23 -13 11 -13 14 2 27 10 8 12 11 4 7 -11
-5 -13 -3 -8 9 3 9 2 19 -4 23 -6 3 -3 12 8 21 10 8 13 12 6 8 -20 -10 -23
176 -3 193 8 8 9 11 3 7 -9 -4 -13 6 -14 37 0 24 -2 51 -4 61 -4 19 -3 19 19
11 9 -3 16 -11 16 -16 0 -6 -8 -7 -17 -3 -15 5 -16 4 -5 -6 10 -11 14 -11 25
0 10 10 9 15 -5 25 -14 10 -15 15 -5 26 10 12 9 12 -4 2 -9 -6 -18 -9 -22 -6
-7 7 26 42 35 37 4 -2 5 3 1 12 -4 11 -8 13 -13 5 -5 -8 -11 -6 -20 5 -10 12
-10 15 4 15 9 0 16 5 16 11 0 6 -6 9 -12 6 -9 -3 -13 5 -13 23 0 16 3 26 6 25
8 -6 2 82 -7 96 -5 8 -3 9 6 4 9 -6 12 -4 8 6 -5 13 16 15 141 14 80 0 152 -4
159 -8z m1160 2 c-7 -5 -8 -9 -2 -9 6 0 14 3 18 8 11 11 156 9 149 -2 -4 -5 0
-6 8 -1 22 14 60 15 52 2 -5 -9 -3 -9 8 -1 21 15 135 12 131 -5 -1 -7 2 -10 8
-6 6 3 8 10 6 14 -3 4 26 7 64 7 40 0 66 -4 63 -10 -4 -5 0 -6 8 0 25 15 41
14 35 -4 -5 -15 -4 -15 6 -2 7 8 24 16 37 18 21 2 22 0 10 -15 -13 -17 -13
-17 5 -3 27 21 157 22 173 1 6 -9 15 -13 19 -8 4 4 2 7 -4 7 -7 0 -12 4 -12 8
0 4 26 8 58 7 l57 0 1 -65 c0 -36 -4 -73 -9 -84 -6 -13 -6 -16 3 -11 17 10 8
-27 -10 -43 -13 -11 -13 -11 1 -7 13 5 15 -3 14 -44 -1 -28 -5 -54 -9 -58 -9
-10 -27 18 -19 31 3 5 1 6 -5 2 -6 -4 -9 -12 -6 -19 3 -9 -33 -12 -148 -13
l-153 0 -2 -560 c-2 -307 -4 -617 -5 -688 l-3 -129 -105 -2 c-58 -1 -115 2
-127 6 -12 5 -23 4 -25 -1 -2 -4 -15 -6 -29 -3 -22 4 -25 9 -21 31 3 15 12 32
21 39 14 10 14 14 2 25 -12 11 -13 10 -8 -4 4 -10 2 -18 -2 -18 -5 0 -11 6
-14 13 -5 17 4 47 15 47 5 0 6 -5 2 -12 -5 -7 -3 -8 6 -3 10 6 7 12 -10 25
-15 11 -19 19 -11 24 8 5 8 13 0 28 -6 11 -7 18 -1 14 5 -3 10 5 10 19 0 14
-3 23 -7 21 -3 -2 -6 15 -6 39 0 24 3 41 6 40 3 -2 5 12 5 30 -1 19 -5 35 -9
35 -5 0 -5 5 -2 10 4 6 10 8 15 5 5 -3 12 0 16 6 4 8 3 9 -5 5 -6 -4 -14 0
-18 10 -9 23 -10 303 -1 337 4 16 3 27 -3 27 -6 0 -7 5 -4 10 4 6 10 8 15 5 5
-3 12 0 16 6 4 7 3 9 -4 5 -6 -3 -14 -1 -17 5 -9 13 -12 149 -4 144 3 -2 5 12
5 30 -1 19 -5 35 -9 35 -5 0 -5 5 -2 10 4 6 10 8 15 5 5 -3 12 -1 15 5 4 6 1
9 -7 8 -8 -2 -12 5 -11 20 2 13 -1 21 -5 18 -4 -2 -7 8 -6 22 1 15 6 26 12 25
5 -1 12 4 15 11 4 10 -1 12 -16 8 -20 -5 -20 -4 -8 11 7 9 17 15 20 12 4 -2 8
2 8 10 0 11 -4 12 -14 4 -15 -13 -15 -16 -15 91 0 41 -4 77 -8 80 -5 3 -82 5
-172 5 l-163 0 0 80 c0 44 3 85 8 92 4 6 2 13 -5 16 -10 3 -10 7 1 20 8 10 9
17 3 17 -6 0 -9 17 -7 43 1 23 3 42 4 42 37 4 109 0 99 -6z m-458 -179 c0 -5
-2 -10 -4 -10 -3 0 -8 5 -11 10 -3 6 -1 10 4 10 6 0 11 -4 11 -10z m-1000 -40
c0 -5 -2 -10 -4 -10 -3 0 -8 5 -11 10 -3 6 -1 10 4 10 6 0 11 -4 11 -10z
m1022 -462 c-6 -6 -8 -18 -5 -27 5 -15 4 -14 -12 1 -15 14 -15 18 -4 31 8 8
18 13 22 10 5 -3 4 -10 -1 -15z m-57 -58 c-3 -10 -1 -21 5 -25 7 -4 7 -13 -1
-27 -6 -12 -7 -18 -1 -14 5 3 13 -2 16 -11 4 -9 1 -20 -6 -25 -18 -11 -28 -10
-28 3 0 5 5 7 10 4 6 -3 10 -1 10 4 0 6 -4 11 -9 11 -5 0 -10 25 -10 55 0 33
4 53 10 49 5 -3 7 -14 4 -24z m-965 -120 c0 -5 -2 -10 -4 -10 -3 0 -8 5 -11
10 -3 6 -1 10 4 10 6 0 11 -4 11 -10z m977 -16 c2 -6 -3 -11 -12 -11 -8 0 -15
7 -15 15 0 15 22 12 27 -4z m3 -34 c0 -5 -7 -7 -15 -4 -8 4 -12 10 -9 15 6 11
24 2 24 -11z m-15 -310 c-3 -10 -1 -21 5 -25 7 -4 7 -13 -1 -27 -6 -12 -7 -18
-1 -14 5 3 13 -1 16 -10 9 -23 0 -29 -18 -12 -16 17 -21 122 -5 112 5 -3 7
-14 4 -24z m25 -150 c0 -5 -2 -10 -4 -10 -3 0 -8 5 -11 10 -3 6 -1 10 4 10 6
0 11 -4 11 -10z m-16 -177 c22 -25 22 -29 7 -40 -9 -7 -23 -12 -31 -12 -12 0
-12 2 3 13 9 7 17 16 17 19 0 4 -8 4 -17 1 -15 -5 -15 -4 -4 4 12 9 12 13 2
26 -23 28 -1 17 23 -11z"/>
<path d="M2906 3873 c-6 -14 -5 -15 5 -6 7 7 10 15 7 18 -3 3 -9 -2 -12 -12z"/>
<path d="M2919 3856 c-19 -43 -19 -57 5 -83 23 -27 16 -42 -8 -18 -9 9 -16 12
-16 6 0 -16 37 -33 45 -21 3 5 3 16 -2 23 -4 6 -8 21 -9 32 -1 11 -4 29 -8 40
-7 17 -4 16 14 -4 17 -20 23 -22 30 -11 5 8 7 17 5 21 -3 3 4 14 15 24 22 20
28 7 8 -14 -11 -11 -9 -11 9 0 17 10 19 16 11 26 -8 10 -14 10 -24 2 -8 -6
-14 -8 -14 -3 0 5 -10 10 -23 10 -17 1 -27 -7 -38 -30z m55 3 c-3 -5 -11 -6
-17 -2 -7 4 -6 0 2 -10 7 -9 9 -17 3 -17 -5 0 -15 7 -22 15 -9 11 -9 15 -1 15
7 0 10 4 7 9 -4 5 3 7 14 4 11 -3 17 -9 14 -14z m-44 -61 c0 -19 -16 -5 -17
14 -2 18 0 20 7 8 5 -8 10 -18 10 -22z"/>
<path d="M3036 3877 c3 -10 9 -15 12 -12 3 3 0 11 -7 18 -10 9 -11 8 -5 -6z"/>
<path d="M3070 3862 c-23 -22 -23 -24 -3 -13 12 6 25 16 28 22 13 20 0 15 -25
-9z"/>
<path d="M3117 3883 c-4 -3 -7 -11 -7 -17 0 -6 5 -5 12 2 6 6 9 14 7 17 -3 3
-9 2 -12 -2z"/>
<path d="M3137 3865 c-11 -16 -23 -22 -35 -18 -18 7 -17 5 12 -17 11 -8 17
-10 13 -4 -8 14 29 45 47 38 18 -7 30 12 15 22 -8 4 -9 3 -5 -4 9 -14 -6 -16
-19 -3 -6 6 -17 0 -28 -14z"/>
<path d="M3015 3840 c-3 -5 -2 -10 4 -10 5 0 13 5 16 10 3 6 2 10 -4 10 -5 0
-13 -4 -16 -10z"/>
<path d="M3154 3839 c-3 -6 -1 -16 5 -22 6 -6 11 -7 11 -2 0 5 7 0 16 -11 14
-18 15 -18 4 4 -6 12 -15 20 -21 17 -5 -4 -9 -2 -9 4 0 5 6 12 13 14 9 4 9 6
0 6 -6 1 -15 -4 -19 -10z"/>
<path d="M3070 3836 c0 -3 9 -10 20 -16 11 -6 20 -8 20 -6 0 3 -9 10 -20 16
-11 6 -20 8 -20 6z"/>
<path d="M2995 3821 c3 -5 0 -11 -7 -13 -7 -3 -5 -7 6 -11 9 -4 15 -3 11 2 -3
5 0 11 7 13 7 3 5 7 -6 11 -9 4 -15 3 -11 -2z"/>
<path d="M3034 3808 c-10 -12 -13 -18 -6 -14 7 4 21 2 30 -5 14 -11 15 -11 5
1 -16 18 -17 34 -1 24 7 -4 8 -3 4 4 -9 16 -10 16 -32 -10z"/>
<path d="M3111 3790 c-13 -11 -19 -20 -13 -20 5 0 15 7 22 15 7 8 16 12 21 9
5 -3 9 0 9 5 0 16 -12 13 -39 -9z"/>
<path d="M2955 3789 c-4 -6 -5 -12 -2 -15 2 -3 7 2 10 11 7 17 1 20 -8 4z"/>
<path d="M2975 3780 c-8 -13 3 -30 18 -29 9 0 9 2 0 6 -7 2 -13 9 -13 14 0 6
5 7 12 3 7 -4 8 -3 4 4 -9 15 -13 15 -21 2z"/>
<path d="M3155 3781 c-3 -5 -2 -12 3 -15 5 -3 9 1 9 9 0 17 -3 19 -12 6z"/>
<path d="M3130 3760 c0 -5 5 -10 11 -10 5 0 7 5 4 10 -3 6 -8 10 -11 10 -2 0
-4 -4 -4 -10z"/>
<path d="M3025 3740 c-3 -6 1 -7 9 -4 18 7 21 14 7 14 -6 0 -13 -4 -16 -10z"/>
<path d="M3160 3735 c-7 -9 -11 -17 -9 -20 3 -2 10 5 17 15 14 24 10 26 -8 5z"/>
<path d="M2928 3713 c6 -2 9 -10 6 -15 -4 -7 -2 -8 5 -4 13 9 5 26 -12 25 -9
0 -8 -2 1 -6z"/>
<path d="M2956 3693 c-6 -14 -5 -15 5 -6 7 7 10 15 7 18 -3 3 -9 -2 -12 -12z"/>
<path d="M3035 3681 c-3 -5 -2 -12 3 -15 5 -3 9 1 9 9 0 17 -3 19 -12 6z"/>
<path d="M2933 3655 c-3 -9 -3 -18 -1 -21 3 -3 8 4 11 16 6 23 -1 27 -10 5z"/>
<path d="M3014 3636 c1 -8 5 -18 8 -22 4 -3 5 1 4 10 -1 8 -5 18 -8 22 -4 3
-5 -1 -4 -10z"/>
<path d="M2946 3622 c-2 -4 4 -8 14 -8 10 0 16 4 14 8 -3 4 -9 8 -14 8 -5 0
-11 -4 -14 -8z"/>
<path d="M3170 3579 c0 -5 5 -7 10 -4 6 3 10 8 10 11 0 2 -4 4 -10 4 -5 0 -10
-5 -10 -11z"/>
<path d="M2931 3554 c0 -11 3 -14 6 -6 3 7 2 16 -1 19 -3 4 -6 -2 -5 -13z"/>
<path d="M2925 3519 c-3 -4 2 -6 10 -5 21 3 28 13 10 13 -9 0 -18 -4 -20 -8z"/>
<path d="M2900 3465 c0 -7 30 -13 34 -7 3 4 -4 9 -15 9 -10 1 -19 0 -19 -2z"/>
<path d="M2910 3430 c6 -11 13 -20 16 -20 2 0 0 9 -6 20 -6 11 -13 20 -16 20
-2 0 0 -9 6 -20z"/>
<path d="M2950 3381 c0 -6 4 -12 8 -15 5 -3 9 1 9 9 0 8 -4 15 -9 15 -4 0 -8
-4 -8 -9z"/>
<path d="M3170 3379 c0 -5 5 -7 10 -4 6 3 10 8 10 11 0 2 -4 4 -10 4 -5 0 -10
-5 -10 -11z"/>
<path d="M2910 3360 c0 -5 5 -10 11 -10 5 0 7 5 4 10 -3 6 -8 10 -11 10 -2 0
-4 -4 -4 -10z"/>
<path d="M2970 3340 c0 -5 5 -10 11 -10 5 0 7 5 4 10 -3 6 -8 10 -11 10 -2 0
-4 -4 -4 -10z"/>
<path d="M2930 3336 c0 -2 8 -10 18 -17 15 -13 16 -12 3 4 -13 16 -21 21 -21
13z"/>
<path d="M3007 3319 c7 -7 15 -10 18 -7 3 3 -2 9 -12 12 -14 6 -15 5 -6 -5z"/>
<path d="M2914 3289 c-3 -6 -2 -15 3 -20 5 -5 9 -1 9 11 0 23 -2 24 -12 9z"/>
<path d="M2933 3235 c0 -7 6 -11 14 -8 7 3 13 6 13 8 0 2 -6 5 -13 8 -8 3 -14
-1 -14 -8z"/>
<path d="M2970 3220 c0 -5 5 -10 11 -10 5 0 7 5 4 10 -3 6 -8 10 -11 10 -2 0
-4 -4 -4 -10z"/>
<path d="M3170 3219 c0 -5 5 -7 10 -4 6 3 10 8 10 11 0 2 -4 4 -10 4 -5 0 -10
-5 -10 -11z"/>
<path d="M2930 3130 c-9 -6 -10 -10 -3 -10 6 0 15 5 18 10 8 12 4 12 -15 0z"/>
<path d="M2932 3051 c-11 -7 -11 -9 0 -14 9 -3 15 1 15 9 0 8 -1 14 -1 14 -1
0 -7 -4 -14 -9z"/>
<path d="M2910 2995 c0 -8 2 -15 4 -15 2 0 6 7 10 15 3 8 1 15 -4 15 -6 0 -10
-7 -10 -15z"/>
<path d="M3170 2979 c0 -5 5 -7 10 -4 6 3 10 8 10 11 0 2 -4 4 -10 4 -5 0 -10
-5 -10 -11z"/>
<path d="M2955 2970 c-4 -6 -11 -8 -16 -5 -5 4 -9 1 -9 -4 0 -16 16 -13 30 4
7 8 10 15 7 15 -3 0 -9 -5 -12 -10z"/>
<path d="M2910 2925 c0 -8 4 -15 10 -15 5 0 7 7 4 15 -4 8 -8 15 -10 15 -2 0
-4 -7 -4 -15z"/>
<path d="M2941 2874 c0 -11 3 -14 6 -6 3 7 2 16 -1 19 -3 4 -6 -2 -5 -13z"/>
<path d="M2959 2833 c-13 -16 -12 -17 4 -4 16 13 21 21 13 21 -2 0 -10 -8 -17
-17z"/>
<path d="M2900 2825 c0 -7 30 -13 34 -7 3 4 -4 9 -15 9 -10 1 -19 0 -19 -2z"/>
<path d="M2930 2761 c0 -9 38 -12 44 -3 2 4 -7 8 -20 8 -13 1 -24 -1 -24 -5z"/>
<path d="M2914 2742 c4 -7 2 -12 -3 -12 -6 0 -11 -4 -11 -10 0 -15 17 -12 23
5 4 8 1 17 -5 21 -7 4 -8 3 -4 -4z"/>
<path d="M2990 2718 c0 -4 4 -8 9 -8 6 0 12 4 15 8 3 5 -1 9 -9 9 -8 0 -15 -4
-15 -9z"/>
<path d="M2950 2682 c0 -5 7 -9 15 -9 8 0 12 4 9 9 -3 4 -9 8 -15 8 -5 0 -9
-4 -9 -8z"/>
<path d="M2914 2662 c3 -5 0 -13 -6 -15 -9 -4 -10 -6 -1 -6 17 -1 25 16 12 25
-7 4 -9 3 -5 -4z"/>
<path d="M3175 2660 c3 -5 8 -10 11 -10 2 0 4 5 4 10 0 6 -5 10 -11 10 -5 0
-7 -4 -4 -10z"/>
<path d="M2949 2623 c-13 -16 -12 -17 4 -4 16 13 21 21 13 21 -2 0 -10 -8 -17
-17z"/>
<path d="M2914 2622 c3 -5 0 -13 -6 -15 -9 -4 -10 -6 -1 -6 17 -1 25 16 12 25
-7 4 -9 3 -5 -4z"/>
<path d="M3176 2607 c3 -10 9 -15 12 -12 3 3 0 11 -7 18 -10 9 -11 8 -5 -6z"/>
<path d="M2908 2523 c7 -3 16 -2 19 1 4 3 -2 6 -13 5 -11 0 -14 -3 -6 -6z"/>
<path d="M3156 2522 c-3 -5 1 -9 9 -9 8 0 12 4 9 9 -3 4 -7 8 -9 8 -2 0 -6 -4
-9 -8z"/>
<path d="M2915 2481 c-3 -5 -2 -12 3 -15 5 -3 9 1 9 9 0 17 -3 19 -12 6z"/>
<path d="M3176 2458 c3 -5 10 -6 15 -3 13 9 11 12 -6 12 -8 0 -12 -4 -9 -9z"/>
<path d="M2907 2442 c1 -8 3 -16 3 -18 0 -2 4 -4 8 -4 5 0 9 7 9 15 0 8 -4 12
-8 9 -4 -2 -9 -1 -12 3 -2 5 -2 2 0 -5z"/>
<path d="M3175 2420 c3 -5 8 -10 11 -10 2 0 4 5 4 10 0 6 -5 10 -11 10 -5 0
-7 -4 -4 -10z"/>
<path d="M2930 2398 c0 -4 4 -8 9 -8 6 0 12 4 15 8 3 5 -1 9 -9 9 -8 0 -15 -4
-15 -9z"/>
<path d="M2960 2355 c-7 -9 -11 -17 -9 -20 3 -2 10 5 17 15 14 24 10 26 -8 5z"/>
<path d="M2973 2327 c0 -8 6 -14 14 -14 9 0 10 4 2 14 -6 7 -12 13 -14 13 -1
0 -2 -6 -2 -13z"/>
<path d="M2916 2318 c3 -4 9 -8 15 -8 5 0 9 4 9 8 0 5 -7 9 -15 9 -8 0 -12 -4
-9 -9z"/>
<path d="M3050 2299 c0 -5 5 -7 10 -4 6 3 10 8 10 11 0 2 -4 4 -10 4 -5 0 -10
-5 -10 -11z"/>
<path d="M3090 2300 c0 -5 5 -10 11 -10 5 0 7 5 4 10 -3 6 -8 10 -11 10 -2 0
-4 -4 -4 -10z"/>
<path d="M2971 2293 c-2 -20 16 -24 30 -5 13 15 12 16 -3 4 -13 -10 -17 -10
-21 0 -4 9 -6 9 -6 1z"/>
<path d="M2906 2281 c-4 -5 3 -7 14 -4 23 6 26 13 6 13 -8 0 -17 -4 -20 -9z"/>
<path d="M3016 2232 c-2 -4 4 -8 14 -8 10 0 16 4 14 8 -3 4 -9 8 -14 8 -5 0
-11 -4 -14 -8z"/>
<path d="M4263 3874 c1 -18 4 -20 19 -10 10 6 18 15 18 20 0 4 -6 3 -14 -3
-11 -9 -15 -9 -19 1 -3 7 -5 3 -4 -8z"/>
<path d="M4328 3874 c-2 -11 -12 -19 -23 -19 -12 0 -19 -6 -17 -14 2 -9 -3
-11 -14 -7 -14 5 -15 4 -4 -9 10 -12 15 -13 21 -3 4 6 5 16 3 20 -3 4 -1 8 5
8 29 0 14 -36 -24 -58 -11 -6 -14 -12 -7 -12 16 0 63 50 57 61 -3 4 1 11 9 16
10 5 12 13 7 22 -7 11 -10 10 -13 -5z"/>
<path d="M4414 3875 c3 -9 0 -15 -9 -15 -8 0 -15 -5 -15 -10 0 -7 6 -7 20 0
16 9 19 40 3 40 -3 0 -3 -7 1 -15z"/>
<path d="M4441 3874 c0 -11 3 -14 6 -6 3 7 2 16 -1 19 -3 4 -6 -2 -5 -13z"/>
<path d="M4475 3880 c3 -5 8 -10 11 -10 2 0 4 5 4 10 0 6 -5 10 -11 10 -5 0
-7 -4 -4 -10z"/>
<path d="M4650 3880 c0 -5 5 -10 11 -10 5 0 7 5 4 10 -3 6 -8 10 -11 10 -2 0
-4 -4 -4 -10z"/>
<path d="M4701 3874 c0 -11 3 -14 6 -6 3 7 2 16 -1 19 -3 4 -6 -2 -5 -13z"/>
<path d="M4827 3879 c7 -7 15 -10 18 -7 3 3 -2 9 -12 12 -14 6 -15 5 -6 -5z"/>
<path d="M5006 3882 c-3 -5 1 -9 9 -9 8 0 12 4 9 9 -3 4 -7 8 -9 8 -2 0 -6 -4
-9 -8z"/>
<path d="M5170 3881 c0 -12 0 -12 48 -16 29 -2 31 -1 15 10 -13 10 -20 10 -25
2 -4 -7 -11 -7 -22 2 -11 9 -16 10 -16 2z"/>
<path d="M5070 3870 c-8 -5 -10 -10 -5 -10 6 0 17 5 25 10 8 5 11 10 5 10 -5
0 -17 -5 -25 -10z"/>
<path d="M4495 3860 c-3 -6 1 -7 9 -4 18 7 21 14 7 14 -6 0 -13 -4 -16 -10z"/>
<path d="M4575 3860 c-3 -6 1 -13 9 -16 9 -3 13 -11 9 -18 -3 -6 -2 -7 3 -3 5
5 9 14 9 20 1 7 7 11 14 9 7 -1 9 2 6 9 -5 8 -10 8 -18 0 -14 -14 -30 -14 -22
-1 3 6 4 10 1 10 -3 0 -8 -5 -11 -10z"/>
<path d="M4754 3856 c1 -8 5 -18 8 -22 4 -3 5 1 4 10 -1 8 -5 18 -8 22 -4 3
-5 -1 -4 -10z"/>
<path d="M4859 3868 c-5 -18 -6 -38 -1 -34 7 8 12 36 6 36 -2 0 -4 -1 -5 -2z"/>
<path d="M5110 3860 c0 -5 5 -10 10 -10 6 0 10 5 10 10 0 6 -4 10 -10 10 -5 0
-10 -4 -10 -10z"/>
<path d="M4731 3844 c0 -11 3 -14 6 -6 3 7 2 16 -1 19 -3 4 -6 -2 -5 -13z"/>
<path d="M4901 3854 c-1 -6 5 -17 12 -23 10 -8 14 -7 14 4 0 8 -4 12 -8 9 -4
-2 -10 2 -12 8 -4 8 -6 9 -6 2z"/>
<path d="M4995 3850 c-3 -6 1 -7 9 -4 18 7 21 14 7 14 -6 0 -13 -4 -16 -10z"/>
<path d="M5146 3844 c-18 -18 -21 -28 -6 -19 6 4 19 1 28 -7 15 -12 16 -11 4
4 -8 9 -11 22 -7 28 9 15 -1 12 -19 -6z"/>
<path d="M4346 3842 c5 -4 12 -11 15 -15 3 -5 9 -2 12 5 3 9 -3 14 -15 15 -11
1 -16 -1 -12 -5z"/>
<path d="M4450 3840 c0 -5 5 -10 10 -10 6 0 10 5 10 10 0 6 -4 10 -10 10 -5 0
-10 -4 -10 -10z"/>
<path d="M4513 3832 c2 -12 6 -24 10 -28 3 -4 4 4 2 16 -2 12 -7 25 -10 28 -3
3 -4 -4 -2 -16z"/>
<path d="M4675 3840 c-3 -5 -1 -10 4 -10 6 0 11 5 11 10 0 6 -2 10 -4 10 -3 0
-8 -4 -11 -10z"/>
<path d="M5205 3840 c-3 -6 1 -7 9 -4 18 7 21 14 7 14 -6 0 -13 -4 -16 -10z"/>
<path d="M4332 3817 c-9 -10 -8 -18 4 -33 14 -18 15 -18 5 3 -8 16 -8 23 2 26
6 2 9 7 6 11 -3 4 -11 0 -17 -7z"/>
<path d="M5216 3821 c-3 -5 2 -15 12 -22 16 -13 16 -13 2 5 -14 18 -13 19 3
13 11 -4 16 -3 12 3 -8 12 -22 13 -29 1z"/>
<path d="M4400 3805 c0 -2 6 -8 13 -14 10 -8 14 -7 14 2 0 8 -6 14 -14 14 -7
0 -13 -1 -13 -2z"/>
<path d="M4316 3767 c5 -21 3 -27 -7 -25 -19 4 -18 -44 1 -49 9 -3 11 -1 5 4
-14 11 -19 47 -6 38 16 -9 24 21 12 42 -9 15 -10 13 -5 -10z"/>
<path d="M5055 3780 c-3 -5 -1 -10 4 -10 6 0 11 5 11 10 0 6 -2 10 -4 10 -3 0
-8 -4 -11 -10z"/>
<path d="M5215 3770 c-4 -6 -10 -8 -14 -6 -4 3 -8 -1 -8 -9 0 -10 4 -12 12 -5
7 5 14 8 17 5 2 -3 5 2 5 10 0 18 -3 19 -12 5z"/>
<path d="M4273 3747 c-8 -16 -8 -28 -1 -38 8 -11 9 -11 5 2 -3 9 1 26 9 38 8
11 11 21 6 21 -5 0 -14 -11 -19 -23z"/>
<path d="M4356 3733 c-6 -14 -5 -15 5 -6 7 7 10 15 7 18 -3 3 -9 -2 -12 -12z"/>
<path d="M5217 3733 c-10 -9 -9 -23 1 -23 5 0 9 7 9 15 0 17 -1 18 -10 8z"/>
<path d="M4334 3698 c-4 -7 -4 -10 1 -6 4 4 15 2 23 -4 18 -15 44 -20 36 -6
-3 5 -9 7 -12 4 -3 -3 -13 1 -23 10 -14 12 -18 13 -25 2z"/>
<path d="M4275 3659 c-11 -16 -1 -19 13 -3 7 8 8 14 3 14 -5 0 -13 -5 -16 -11z"/>
<path d="M4330 3650 c-9 -6 -10 -10 -3 -10 6 0 15 5 18 10 8 12 4 12 -15 0z"/>
<path d="M4376 3647 c3 -10 9 -15 12 -12 3 3 0 11 -7 18 -10 9 -11 8 -5 -6z"/>
<path d="M4285 3637 c-22 -24 -25 -36 -14 -43 8 -4 9 -3 5 4 -4 7 -3 12 1 12
5 0 14 9 21 20 13 22 4 27 -13 7z"/>
<path d="M4350 3629 c0 -5 -5 -7 -12 -3 -7 4 -8 3 -4 -4 4 -6 13 -9 21 -6 8 4
12 10 9 15 -7 12 -14 11 -14 -2z"/>
<path d="M4450 3619 c0 -5 5 -7 10 -4 6 3 10 8 10 11 0 2 -4 4 -10 4 -5 0 -10
-5 -10 -11z"/>
<path d="M4296 3601 c-4 -5 3 -7 14 -4 23 6 26 13 6 13 -8 0 -17 -4 -20 -9z"/>
<path d="M4376 3598 c3 -5 10 -6 15 -3 13 9 11 12 -6 12 -8 0 -12 -4 -9 -9z"/>
<path d="M4626 3322 c-3 -5 1 -9 9 -9 8 0 12 4 9 9 -3 4 -7 8 -9 8 -2 0 -6 -4
-9 -8z"/>
<path d="M4699 3308 c-5 -18 -6 -38 -1 -34 7 8 12 36 6 36 -2 0 -4 -1 -5 -2z"/>
<path d="M4630 3245 c0 -7 30 -13 34 -7 3 4 -4 9 -15 9 -10 1 -19 0 -19 -2z"/>
<path d="M4614 3217 c-4 -7 -4 -9 1 -5 4 4 13 0 20 -8 11 -15 12 -15 12 -1 0
20 -24 30 -33 14z"/>
<path d="M4690 3139 c0 -5 5 -7 10 -4 6 3 10 8 10 11 0 2 -4 4 -10 4 -5 0 -10
-5 -10 -11z"/>
<path d="M4611 3127 c2 -1 13 -9 24 -17 19 -14 19 -14 6 3 -7 9 -18 17 -24 17
-6 0 -8 -1 -6 -3z"/>
<path d="M4610 3079 c0 -5 5 -7 10 -4 6 3 10 8 10 11 0 2 -4 4 -10 4 -5 0 -10
-5 -10 -11z"/>
<path d="M4760 3080 c-9 -6 -10 -10 -3 -10 6 0 15 5 18 10 8 12 4 12 -15 0z"/>
<path d="M4630 3061 c0 -6 4 -13 10 -16 6 -3 7 1 4 9 -7 18 -14 21 -14 7z"/>
<path d="M4615 2980 c-3 -6 1 -7 9 -4 18 7 21 14 7 14 -6 0 -13 -4 -16 -10z"/>
<path d="M4633 2950 c-1 -11 2 -20 7 -20 4 0 7 7 6 15 -3 23 -12 26 -13 5z"/>
<path d="M4605 2920 c-3 -5 -1 -10 4 -10 6 0 11 5 11 10 0 6 -2 10 -4 10 -3 0
-8 -4 -11 -10z"/>
<path d="M4639 2918 c-5 -18 -6 -38 -1 -34 7 8 12 36 6 36 -2 0 -4 -1 -5 -2z"/>
<path d="M4716 2887 c3 -10 9 -15 12 -12 3 3 0 11 -7 18 -10 9 -11 8 -5 -6z"/>
<path d="M4630 2861 c0 -6 4 -12 8 -15 5 -3 9 1 9 9 0 8 -4 15 -9 15 -4 0 -8
-4 -8 -9z"/>
<path d="M4690 2859 c0 -5 5 -7 10 -4 6 3 10 8 10 11 0 2 -4 4 -10 4 -5 0 -10
-5 -10 -11z"/>
<path d="M4605 2840 c-3 -5 -1 -10 4 -10 6 0 11 5 11 10 0 6 -2 10 -4 10 -3 0
-8 -4 -11 -10z"/>
<path d="M4630 2781 c0 -6 4 -12 8 -15 5 -3 9 1 9 9 0 8 -4 15 -9 15 -4 0 -8
-4 -8 -9z"/>
<path d="M4690 2779 c0 -5 5 -7 10 -4 6 3 10 8 10 11 0 2 -4 4 -10 4 -5 0 -10
-5 -10 -11z"/>
<path d="M4605 2760 c-3 -5 -1 -10 4 -10 6 0 11 5 11 10 0 6 -2 10 -4 10 -3 0
-8 -4 -11 -10z"/>
<path d="M4667 2739 c7 -7 15 -10 18 -7 3 3 -2 9 -12 12 -14 6 -15 5 -6 -5z"/>
<path d="M4642 2716 c7 -8 15 -12 17 -11 5 6 -10 25 -20 25 -5 0 -4 -6 3 -14z"/>
<path d="M4605 2680 c-3 -5 -1 -10 4 -10 6 0 11 5 11 10 0 6 -2 10 -4 10 -3 0
-8 -4 -11 -10z"/>
<path d="M4675 2680 c-3 -5 -1 -10 4 -10 6 0 11 5 11 10 0 6 -2 10 -4 10 -3 0
-8 -4 -11 -10z"/>
<path d="M4654 2646 c1 -8 5 -18 8 -22 4 -3 5 1 4 10 -1 8 -5 18 -8 22 -4 3
-5 -1 -4 -10z"/>
<path d="M4686 2622 c-3 -5 1 -9 9 -9 8 0 12 4 9 9 -3 4 -7 8 -9 8 -2 0 -6 -4
-9 -8z"/>
<path d="M4613 2577 c-3 -6 -1 -7 5 -3 7 4 12 2 12 -3 0 -6 4 -11 8 -11 5 0 9
6 9 13 0 16 -25 18 -34 4z"/>
<path d="M4667 2579 c7 -7 15 -10 18 -7 3 3 -2 9 -12 12 -14 6 -15 5 -6 -5z"/>
<path d="M4628 2523 c7 -3 16 -2 19 1 4 3 -2 6 -13 5 -11 0 -14 -3 -6 -6z"/>
<path d="M4630 2506 c0 -2 7 -7 16 -10 8 -3 12 -2 9 4 -6 10 -25 14 -25 6z"/>
<path d="M4674 2480 c0 -13 4 -16 10 -10 7 7 7 13 0 20 -6 6 -10 3 -10 -10z"/>
<path d="M4610 2480 c0 -5 5 -10 10 -10 6 0 10 5 10 10 0 6 -4 10 -10 10 -5 0
-10 -4 -10 -10z"/>
<path d="M4710 2480 c0 -5 5 -10 11 -10 5 0 7 5 4 10 -3 6 -8 10 -11 10 -2 0
-4 -4 -4 -10z"/>
<path d="M4640 2460 c-8 -5 -10 -10 -5 -10 6 0 3 -5 -5 -11 -13 -9 -13 -10 1
-6 9 3 23 0 30 -6 11 -10 11 -9 0 5 -7 9 -10 22 -6 28 8 12 4 13 -15 0z"/>
<path d="M4628 2403 c6 -2 18 -2 25 0 6 3 1 5 -13 5 -14 0 -19 -2 -12 -5z"/>
<path d="M4840 2400 c-9 -6 -10 -10 -3 -10 6 0 15 5 18 10 8 12 4 12 -15 0z"/>
<path d="M4630 2386 c0 -2 7 -7 16 -10 8 -3 12 -2 9 4 -6 10 -25 14 -25 6z"/>
<path d="M4626 2355 c10 -8 23 -15 28 -15 6 0 1 7 -10 15 -10 8 -23 15 -28 15
-6 0 -1 -7 10 -15z"/>
<path d="M4859 2368 c-5 -18 -6 -38 -1 -34 7 8 12 36 6 36 -2 0 -4 -1 -5 -2z"/>
<path d="M4636 2322 c-3 -5 1 -9 9 -9 8 0 12 4 9 9 -3 4 -7 8 -9 8 -2 0 -6 -4
-9 -8z"/>
<path d="M4693 2315 c0 -8 4 -12 9 -9 5 3 6 10 3 15 -9 13 -12 11 -12 -6z"/>
<path d="M4635 2275 c-23 -25 -28 -52 -10 -59 9 -3 11 2 8 15 -3 11 2 28 12
39 25 27 15 31 -10 5z"/>
<path d="M4876 2282 c-3 -5 1 -9 9 -9 8 0 12 4 9 9 -3 4 -7 8 -9 8 -2 0 -6 -4
-9 -8z"/>
<path d="M4650 2250 c-6 -12 -5 -17 5 -17 7 0 11 7 7 15 -3 10 -1 13 6 8 6 -3
13 -3 16 2 3 5 -2 9 -10 9 -8 0 -19 -8 -24 -17z"/>
<path d="M4709 2254 c6 -12 7 -25 3 -29 -4 -5 0 -4 8 1 8 5 18 9 22 9 3 0 9 3
13 7 4 3 -1 5 -12 4 -10 -2 -24 4 -31 13 -11 14 -12 13 -3 -5z"/>
<path d="M4855 2253 c3 -3 -2 -11 -11 -17 -13 -10 -13 -12 4 -12 19 0 24 19 9
31 -4 3 -5 2 -2 -2z"/>
<path d="M4684 2239 c-3 -6 -2 -15 3 -20 5 -5 9 -1 9 11 0 23 -2 24 -12 9z"/>
<path d="M408 4402 c-27 -2 -48 -6 -48 -10 0 -4 58 -7 130 -7 71 0 130 3 130
8 0 4 -12 7 -27 8 -16 0 -53 1 -83 2 -30 1 -76 1 -102 -1z"/>
<path d="M763 4402 c-86 -5 -60 -17 37 -18 50 0 90 3 90 7 0 9 -63 15 -127 11z"/>
<path d="M1063 4402 c-86 -5 -60 -17 37 -18 50 0 90 3 90 7 0 9 -62 15 -127
11z"/>
<path d="M1415 4401 c-11 -5 -24 -6 -29 -3 -5 3 -6 1 -3 -5 3 -5 30 -9 59 -8
29 1 58 -2 65 -7 6 -5 14 -5 17 0 3 5 19 8 36 7 16 -1 30 2 30 7 0 4 -1 8 -2
8 -45 7 -158 8 -173 1z"/>
<path d="M1795 4399 c-89 -8 -53 -11 175 -13 113 -1 212 -6 220 -11 12 -7 13
-6 3 7 -7 8 -11 17 -9 19 7 6 -321 5 -389 -2z"/>
<path d="M5186 4358 c3 -5 10 -6 15 -3 13 9 11 12 -6 12 -8 0 -12 -4 -9 -9z"/>
<path d="M363 4328 c-13 -15 -13 -17 4 -27 11 -5 25 -6 33 -1 15 10 37 3 65
-19 18 -15 19 -15 7 0 -10 14 -10 18 2 22 21 8 47 -19 40 -41 -5 -14 -4 -14 4
-3 6 8 8 20 5 27 -4 10 6 12 41 9 26 -2 44 0 41 6 -3 5 1 6 9 3 12 -4 16 0 16
16 0 18 -4 21 -25 18 -14 -3 -25 -2 -25 1 0 3 -45 6 -101 6 -81 0 -103 -3
-116 -17z"/>
<path d="M738 4342 c-20 -2 -28 -9 -28 -23 0 -16 8 -19 53 -20 28 -1 67 0 86
1 25 1 32 -2 26 -12 -3 -7 1 -4 9 6 21 26 20 33 -6 47 -24 13 -26 13 -45 -3
-7 -6 -13 -7 -13 -2 0 9 -34 11 -82 6z"/>
<path d="M1036 4339 c3 -5 -1 -6 -9 -3 -15 5 -32 -22 -19 -29 23 -13 62 -16
62 -5 0 8 3 9 10 2 14 -14 103 -6 112 10 4 6 4 14 0 18 -10 10 -162 17 -156 7z"/>
<path d="M1386 4333 c-3 -7 -12 -13 -21 -13 -8 0 -15 -4 -15 -9 0 -13 28 -22
35 -10 4 5 11 7 16 3 17 -10 89 -14 89 -4 0 13 32 0 46 -18 9 -12 13 -13 19
-2 6 9 4 11 -5 5 -8 -5 -11 -3 -8 6 3 8 11 13 17 12 20 -5 26 -5 51 -4 23 2
24 3 8 15 -10 7 -16 15 -13 17 6 7 -27 10 -127 13 -65 2 -88 -1 -92 -11z"/>
<path d="M1850 4342 c-74 -2 -99 -6 -104 -17 -8 -23 11 -28 108 -26 98 1 167
1 260 -3 58 -2 98 16 79 35 -9 9 -199 15 -343 11z"/>
<path d="M1135 4280 c-2 -3 5 -6 15 -7 11 -1 22 2 24 5 3 4 -4 8 -15 8 -11 0
-22 -3 -24 -6z"/>
<path d="M1500 4286 c0 -2 8 -10 18 -17 15 -13 16 -12 3 4 -13 16 -21 21 -21
13z"/>
<path d="M1886 4282 c-3 -5 1 -9 9 -9 8 0 12 4 9 9 -3 4 -7 8 -9 8 -2 0 -6 -4
-9 -8z"/>
<path d="M1936 4282 c-3 -5 1 -9 9 -9 8 0 12 4 9 9 -3 4 -7 8 -9 8 -2 0 -6 -4
-9 -8z"/>
<path d="M1990 4280 c0 -5 5 -10 11 -10 5 0 7 5 4 10 -3 6 -8 10 -11 10 -2 0
-4 -4 -4 -10z"/>
<path d="M2021 4274 c0 -11 3 -14 6 -6 3 7 2 16 -1 19 -3 4 -6 -2 -5 -13z"/>
<path d="M2121 4276 c-9 -11 -9 -16 1 -22 7 -4 10 -4 6 1 -4 4 -3 14 3 22 6 7
9 13 6 13 -2 0 -10 -6 -16 -14z"/>
<path d="M556 4258 c3 -5 10 -6 15 -3 13 9 11 12 -6 12 -8 0 -12 -4 -9 -9z"/>
<path d="M752 4258 c-7 -7 -18 -13 -25 -13 -7 0 -13 -18 -15 -42 -3 -40 -2
-43 23 -43 18 0 24 -4 19 -12 -6 -10 -5 -10 7 -1 9 8 39 11 77 9 43 -2 63 1
66 10 3 7 1 16 -5 20 -5 3 -7 14 -4 24 3 10 -1 25 -10 34 -17 17 -30 22 -21 8
2 -4 -22 -7 -54 -7 -46 0 -56 3 -48 12 14 17 6 17 -10 1z"/>
<path d="M1467 4257 c3 -6 -9 -8 -30 -5 -20 2 -33 0 -31 -4 3 -4 0 -8 -5 -8
-22 0 -20 1 -89 -57 l-27 -23 35 -1 c19 -1 48 -1 65 -1 16 1 33 -4 37 -11 4
-7 8 -7 8 -2 0 7 42 10 113 10 61 0 117 1 124 3 14 4 5 32 -11 32 -6 0 -17 9
-24 20 -7 11 -20 20 -30 20 -10 0 -22 4 -28 10 -5 5 -26 10 -47 12 -20 1 -37
5 -37 8 0 4 -7 7 -15 7 -8 0 -11 -5 -8 -10z"/>
<path d="M591 4255 c-1 -6 -46 -10 -116 -9 -63 0 -115 -2 -116 -5 -5 -34 -3
-63 3 -67 5 -3 6 -9 3 -13 -2 -5 13 -7 35 -5 23 2 40 -1 40 -7 0 -6 -6 -7 -12
-3 -7 4 -9 3 -5 -1 12 -14 36 -14 31 -1 -3 8 16 11 60 12 36 1 63 -3 60 -7 -2
-4 9 -1 25 7 26 13 30 20 29 55 0 29 -4 39 -14 35 -7 -3 -15 0 -18 7 -2 7 -5
7 -5 2z"/>
<path d="M1020 4247 c-18 -14 -20 -75 -3 -85 7 -4 35 -7 63 -6 33 2 50 -1 50
-9 0 -8 3 -8 9 1 4 8 11 13 15 13 22 -3 33 1 44 20 9 14 9 19 2 14 -7 -5 -11
0 -10 11 4 38 0 43 -30 39 -22 -3 -29 -1 -23 8 5 8 2 8 -9 -1 -12 -9 -18 -10
-23 -2 -4 6 -12 7 -18 2 -14 -9 -27 -10 -42 0 -6 3 -17 1 -25 -5z"/>
<path d="M1893 4252 c-6 -4 -41 -7 -77 -6 -64 0 -66 -1 -67 -25 0 -14 -2 -34
-4 -43 -3 -17 6 -22 32 -19 6 1 14 -3 18 -9 3 -5 12 -10 18 -10 7 0 6 4 -3 10
-11 7 0 9 38 8 31 0 52 -5 52 -12 0 -6 5 -4 10 4 9 13 11 13 20 0 5 -8 10 -10
10 -4 0 7 39 10 113 9 128 -1 137 1 137 24 0 9 6 23 13 30 10 11 10 13 0 7 -9
-5 -13 0 -13 12 0 16 -6 19 -37 17 -21 -1 -46 2 -57 7 -13 7 -16 7 -12 -1 4
-6 0 -11 -9 -11 -9 0 -13 5 -10 10 3 6 1 10 -4 10 -6 0 -11 -4 -11 -8 0 -10
-51 -9 -67 1 -6 4 -14 3 -18 -3 -3 -5 -11 -10 -16 -10 -6 0 -7 5 -4 10 3 6 1
10 -4 10 -6 0 -11 -5 -11 -11 0 -8 -4 -8 -13 -1 -7 6 -18 8 -24 4z"/>
<path d="M3730 4225 c0 -5 5 -17 10 -25 5 -8 10 -10 10 -5 0 6 -5 17 -10 25
-5 8 -10 11 -10 5z"/>
<path d="M655 4180 c3 -5 8 -10 11 -10 2 0 4 5 4 10 0 6 -5 10 -11 10 -5 0 -7
-4 -4 -10z"/>
<path d="M3766 4182 c-3 -5 1 -9 9 -9 8 0 12 4 9 9 -3 4 -7 8 -9 8 -2 0 -6 -4
-9 -8z"/>
<path d="M3815 4149 c-4 -6 -5 -12 -2 -15 2 -3 7 2 10 11 7 17 1 20 -8 4z"/>
<path d="M513 4129 c-2 -23 3 -25 10 -4 4 8 3 16 -1 19 -4 3 -9 -4 -9 -15z"/>
<path d="M780 4146 c0 -2 9 -6 20 -9 11 -3 18 -1 14 4 -5 9 -34 13 -34 5z"/>
<path d="M1170 4139 c0 -5 5 -7 10 -4 6 3 10 8 10 11 0 2 -4 4 -10 4 -5 0 -10
-5 -10 -11z"/>
<path d="M1536 4141 c-3 -5 2 -15 12 -22 15 -12 16 -12 5 2 -7 9 -10 19 -6 22
3 4 4 7 0 7 -3 0 -8 -4 -11 -9z"/>
<path d="M1580 4146 c0 -2 7 -7 16 -10 8 -3 12 -2 9 4 -6 10 -25 14 -25 6z"/>
<path d="M1830 4146 c0 -2 7 -7 16 -10 8 -3 12 -2 9 4 -6 10 -25 14 -25 6z"/>
<path d="M1875 4140 c-3 -5 -1 -10 4 -10 6 0 11 5 11 10 0 6 -2 10 -4 10 -3 0
-8 -4 -11 -10z"/>
<path d="M1950 4140 c0 -6 7 -10 15 -10 8 0 15 2 15 4 0 2 -7 6 -15 10 -8 3
-15 1 -15 -4z"/>
<path d="M2015 4140 c-3 -6 1 -7 9 -4 18 7 21 14 7 14 -6 0 -13 -4 -16 -10z"/>
<path d="M2150 4140 c0 -5 5 -10 11 -10 5 0 7 5 4 10 -3 6 -8 10 -11 10 -2 0
-4 -4 -4 -10z"/>
<path d="M2185 4140 c-3 -6 1 -7 9 -4 18 7 21 14 7 14 -6 0 -13 -4 -16 -10z"/>
<path d="M1075 4129 c-4 -6 -5 -12 -2 -15 2 -3 7 2 10 11 7 17 1 20 -8 4z"/>
<path d="M835 4113 c5 -20 3 -21 -55 -19 -34 2 -64 -2 -67 -8 -4 -5 -6 -33 -6
-61 0 -27 -5 -56 -11 -64 -9 -12 -8 -13 3 -6 11 6 13 4 8 -8 -7 -18 27 -44 37
-29 7 12 69 2 78 -12 5 -8 8 -7 8 2 0 7 5 10 10 7 6 -3 10 -1 10 5 0 6 5 8 10
5 30 -19 63 26 35 48 -6 4 -4 11 5 17 13 9 13 10 0 10 -13 0 -13 1 0 10 10 7
12 12 4 18 -12 7 -11 34 1 67 5 15 4 17 -3 6 -9 -13 -13 -13 -28 0 -11 9 -15
9 -10 2 4 -7 3 -13 -2 -13 -5 0 -14 10 -21 23 -11 21 -11 21 -6 0z"/>
<path d="M1035 4120 c-3 -5 -1 -10 4 -10 6 0 11 5 11 10 0 6 -2 10 -4 10 -3 0
-8 -4 -11 -10z"/>
<path d="M1375 4120 c5 -8 42 -6 50 1 2 3 -8 5 -25 5 -16 0 -27 -3 -25 -6z"/>
<path d="M1573 4115 c0 -8 4 -12 9 -9 4 3 8 9 8 15 0 5 -4 9 -8 9 -5 0 -9 -7
-9 -15z"/>
<path d="M1897 4123 c-4 -3 -2 -11 3 -18 7 -8 2 -12 -20 -12 -17 0 -27 5 -23
10 4 6 1 7 -8 1 -8 -4 -32 -9 -54 -9 -36 -1 -40 -4 -46 -31 -3 -17 -4 -41 -2
-54 2 -13 -2 -27 -9 -32 -8 -5 -9 -8 -2 -8 6 0 12 -11 12 -25 0 -33 6 -39 28
-27 11 6 27 7 42 1 14 -6 30 -5 42 1 13 7 21 7 25 0 6 -9 58 -5 77 6 4 3 8 1
8 -4 0 -11 49 -10 68 1 6 5 12 4 12 -2 0 -6 15 -8 38 -4 37 5 50 5 87 1 17 -3
19 2 17 31 -3 21 0 31 6 27 6 -3 14 -2 17 4 4 6 1 9 -6 8 -15 -3 -16 2 -18 73
-1 40 -4 49 -13 42 -16 -12 -67 -11 -87 1 -9 6 -12 5 -8 -1 4 -6 -11 -9 -41
-7 -26 1 -47 3 -47 4 0 1 -8 3 -18 5 -9 2 -15 -1 -12 -5 6 -10 -35 -7 -53 4
-7 4 -10 12 -7 17 7 10 1 12 -8 2z"/>
<path d="M3856 4115 c-9 -26 -7 -32 5 -12 6 10 9 21 6 23 -2 3 -7 -2 -11 -11z"/>
<path d="M1098 4108 c12 -15 8 -16 -38 -14 -51 2 -54 -1 -52 -42 1 -14 -3 -20
-10 -16 -8 5 -8 3 -2 -7 5 -8 10 -30 10 -49 3 -62 3 -63 24 -57 12 3 24 -1 30
-11 5 -10 10 -12 10 -5 0 7 17 10 45 9 26 -1 45 2 45 8 0 7 3 8 8 1 4 -5 14
-11 22 -13 8 -2 12 0 8 4 -4 4 -2 14 5 22 9 13 9 14 0 8 -7 -4 -13 -3 -13 1 0
5 6 15 13 22 10 11 9 12 -2 6 -9 -5 -12 -3 -9 6 3 8 12 13 19 11 9 -1 7 3 -4
12 -14 10 -15 15 -5 19 10 4 10 6 1 6 -7 1 -13 7 -13 15 0 8 6 17 13 19 9 4 9
6 -1 6 -7 1 -10 6 -7 11 6 10 2 11 -46 14 -15 1 -35 8 -45 16 -17 14 -18 13
-6 -2z"/>
<path d="M1465 4110 c3 -6 -5 -11 -19 -11 -36 -2 -36 -2 -88 -28 -31 -16 -52
-36 -65 -60 -10 -20 -22 -39 -27 -42 -5 -4 -5 -12 -2 -18 4 -6 2 -11 -4 -11
-6 0 -8 -5 -4 -11 3 -6 17 -9 30 -6 14 2 27 0 30 -4 3 -5 13 -5 23 1 12 6 22
5 29 -2 5 -5 16 -7 23 -2 16 10 61 10 77 0 7 -4 12 -2 13 6 0 7 4 4 8 -6 4
-11 15 -20 24 -22 10 -1 15 2 11 7 -3 5 -10 7 -15 4 -5 -4 -9 1 -9 9 0 13 4
14 25 4 13 -6 22 -15 18 -21 -3 -6 -1 -7 5 -3 6 4 9 13 5 21 -3 11 -1 13 10 9
15 -5 17 -20 5 -40 -4 -6 -1 -11 6 -11 7 0 13 10 12 21 -1 17 5 21 29 21 17
-1 33 4 37 10 5 7 8 6 8 -1 0 -7 11 -9 25 -6 29 5 32 29 10 71 -8 16 -11 32
-7 36 4 5 2 5 -4 2 -6 -4 -20 3 -30 14 -10 11 -39 29 -64 40 -25 11 -53 24
-62 29 -14 8 -16 6 -11 -8 5 -14 4 -15 -8 -6 -21 16 -51 26 -44 14z"/>
<path d="M390 4103 c0 -6 -7 -13 -17 -15 -24 -5 -26 -152 -1 -167 11 -7 19 -7
23 -1 4 7 13 6 26 0 10 -6 19 -7 19 -3 0 4 5 1 10 -7 6 -10 10 -11 10 -2 0 6
4 12 10 12 5 0 7 -8 3 -17 -5 -16 -4 -17 8 -2 16 19 49 32 49 20 0 -4 16 -7
35 -7 19 1 35 5 35 11 0 5 4 5 8 -1 5 -8 13 -3 26 14 11 14 15 22 9 19 -6 -4
-13 2 -16 13 -5 18 4 25 26 21 5 -1 6 3 2 9 -3 6 -11 8 -16 5 -5 -4 -9 16 -9
45 0 32 -4 49 -10 45 -5 -3 -10 -1 -10 6 0 8 -4 8 -12 2 -7 -6 -33 -9 -58 -6
-57 4 -79 4 -110 0 -14 -2 -28 1 -32 7 -6 8 -8 8 -8 -1z"/>
<path d="M3816 4073 c-6 -14 -5 -15 5 -6 7 7 10 15 7 18 -3 3 -9 -2 -12 -12z"/>
<path d="M2206 4042 c-3 -5 1 -9 9 -9 8 0 12 4 9 9 -3 4 -7 8 -9 8 -2 0 -6 -4
-9 -8z"/>
<path d="M5490 4040 c0 -5 5 -10 11 -10 5 0 7 5 4 10 -3 6 -8 10 -11 10 -2 0
-4 -4 -4 -10z"/>
<path d="M640 4026 c0 -2 7 -7 16 -10 8 -3 12 -2 9 4 -6 10 -25 14 -25 6z"/>
<path d="M3871 3987 c-8 -10 -7 -14 2 -14 8 0 14 6 14 14 0 7 -1 13 -2 13 -2
0 -8 -6 -14 -13z"/>
<path d="M3993 3965 c0 -8 4 -12 9 -9 5 3 6 10 3 15 -9 13 -12 11 -12 -6z"/>
<path d="M3845 3939 c-4 -6 -5 -12 -2 -15 2 -3 7 2 10 11 7 17 1 20 -8 4z"/>
<path d="M3934 3926 c1 -8 5 -18 8 -22 4 -3 5 1 4 10 -1 8 -5 18 -8 22 -4 3
-5 -1 -4 -10z"/>
<path d="M635 3921 c-3 -5 -2 -12 3 -15 5 -3 9 1 9 9 0 17 -3 19 -12 6z"/>
<path d="M3869 3918 c7 -10 10 -18 6 -18 -4 0 -2 -7 5 -15 7 -8 18 -15 24 -15
6 0 3 5 -7 11 -9 6 -15 14 -12 18 2 5 -3 15 -13 22 -15 13 -16 12 -3 -3z"/>
<path d="M5530 3922 c0 -5 7 -9 15 -9 8 0 12 4 9 9 -3 4 -9 8 -15 8 -5 0 -9
-4 -9 -8z"/>
<path d="M1099 3908 c-7 -25 -4 -34 15 -35 19 -2 19 -1 3 8 -9 6 -15 14 -12
20 4 5 4 9 1 9 -3 0 -6 -1 -7 -2z"/>
<path d="M1454 3902 c3 -5 0 -13 -6 -15 -9 -4 -10 -6 -1 -6 17 -1 25 16 12 25
-7 4 -9 3 -5 -4z"/>
<path d="M1806 3902 c-3 -5 1 -9 9 -9 8 0 12 4 9 9 -3 4 -7 8 -9 8 -2 0 -6 -4
-9 -8z"/>
<path d="M2033 3889 c-2 -23 3 -25 10 -4 4 8 3 16 -1 19 -4 3 -9 -4 -9 -15z"/>
<path d="M2150 3903 c0 -6 8 -17 18 -24 16 -13 16 -13 2 6 -8 11 -16 22 -17
24 -2 2 -3 0 -3 -6z"/>
<path d="M547 3887 c-3 -8 0 -14 7 -14 7 0 13 6 13 14 0 7 -4 13 -8 13 -4 0
-9 -6 -12 -13z"/>
<path d="M853 3885 c0 -8 4 -15 9 -15 4 0 8 4 8 9 0 6 -4 12 -8 15 -5 3 -9 -1
-9 -9z"/>
<path d="M5533 3885 c0 -8 3 -13 5 -10 3 3 12 -1 21 -7 10 -8 9 -4 -3 10 -23
26 -23 26 -23 7z"/>
<path d="M1483 3878 c1 -7 -13 -12 -33 -14 -19 -1 -37 -3 -40 -4 -3 -1 -8 -2
-12 -1 -5 0 -8 -4 -8 -10 0 -5 -5 -7 -10 -4 -15 9 -110 -91 -110 -115 0 -11
-4 -20 -9 -20 -12 0 -6 -119 7 -152 6 -14 16 -29 22 -33 5 -3 8 -10 5 -14 -2
-5 7 -6 21 -3 16 3 30 -1 35 -9 6 -10 9 -10 9 -1 0 6 9 12 20 12 11 0 20 -6
20 -12 0 -10 2 -10 8 -2 5 8 51 12 139 12 72 0 136 3 143 7 10 6 -35 48 -64
58 -7 3 -6 10 4 23 14 18 14 18 -6 1 -22 -18 -54 -14 -54 7 0 6 -5 4 -10 -4
-8 -12 -12 -12 -18 -2 -5 7 -16 10 -26 6 -11 -4 -23 0 -32 12 -9 11 -13 13 -9
7 3 -7 2 -13 -4 -13 -5 0 -13 6 -18 13 -11 18 -14 49 -4 43 5 -3 12 1 15 10 4
9 9 14 13 11 3 -4 -2 -19 -12 -34 l-18 -28 21 19 c12 11 22 25 22 33 0 7 4 13
9 13 18 0 40 -30 36 -49 -3 -14 4 -20 26 -23 16 -3 29 -1 29 4 0 5 5 6 10 3 8
-5 7 -12 -2 -23 -7 -10 -1 -7 13 6 30 26 39 28 39 5 0 -15 2 -14 15 3 12 16
16 17 24 4 5 -8 7 -18 4 -24 -3 -5 -1 -6 5 -2 6 4 9 13 5 21 -4 11 -1 13 12 9
15 -6 16 -4 7 12 -7 14 -7 25 0 38 8 14 7 17 -1 12 -6 -4 -11 -2 -11 3 0 6 6
11 13 11 9 0 9 2 0 8 -6 4 -13 14 -15 22 -2 8 -11 23 -20 34 -10 11 -18 26
-18 33 0 8 -4 11 -10 8 -5 -3 -10 -2 -10 3 0 5 -13 15 -30 22 -16 7 -28 15
-26 19 4 6 -27 11 -79 11 -20 0 -26 3 -17 9 11 7 11 9 -2 14 -9 4 -15 1 -13
-5z"/>
<path d="M2100 3880 c-8 -5 -10 -10 -5 -10 6 0 17 5 25 10 8 5 11 10 5 10 -5
0 -17 -5 -25 -10z"/>
<path d="M5586 3882 c-3 -5 1 -9 9 -9 8 0 12 4 9 9 -3 4 -7 8 -9 8 -2 0 -6 -4
-9 -8z"/>
<path d="M450 3861 c0 -5 -18 -8 -40 -6 -50 4 -56 -7 -54 -95 3 -83 1 -77 20
-84 8 -3 12 -2 9 4 -4 6 2 7 18 1 14 -6 28 -7 31 -4 3 4 6 1 6 -5 0 -7 -6 -12
-12 -12 -9 0 -10 -3 -2 -8 7 -4 11 -37 10 -80 -1 -41 3 -76 8 -80 5 -3 6 0 2
7 -5 8 11 11 59 10 41 -1 62 -5 53 -10 -9 -6 -9 -9 -1 -9 6 0 15 5 18 10 3 6
18 10 32 10 20 0 24 4 20 20 -3 11 -2 20 1 20 10 0 7 64 -3 80 -6 10 -4 12 10
6 15 -5 16 -4 6 8 -7 8 -11 32 -10 53 2 21 -1 45 -6 52 -6 11 -4 13 10 7 14
-5 15 -4 7 6 -6 7 -12 31 -14 53 l-3 39 -50 1 c-27 0 -56 4 -63 9 -8 5 -18 4
-25 -3 -14 -14 -30 -15 -22 -1 3 6 1 10 -4 10 -6 0 -11 -4 -11 -9z"/>
<path d="M750 3863 c0 -7 -10 -13 -22 -13 -23 0 -23 -1 -22 -148 1 -81 2 -158
3 -172 1 -24 3 -25 74 -23 39 0 82 1 94 2 20 1 22 6 20 66 -1 38 2 65 8 65 7
0 7 3 0 8 -5 4 -10 31 -10 60 0 42 3 51 15 47 13 -4 13 -4 0 7 -16 14 -20 55
-7 76 8 11 -22 18 -60 13 -7 -1 -13 4 -13 11 0 8 -3 9 -8 3 -9 -14 -55 -13
-64 0 -5 6 -8 5 -8 -2z"/>
<path d="M1182 3861 c-7 -4 -49 -7 -92 -6 -67 1 -80 -1 -81 -14 -1 -9 -2 -34
-3 -56 -1 -22 -5 -45 -9 -52 -4 -6 -3 -14 1 -17 11 -7 10 -56 -1 -73 -5 -7 -4
-13 1 -13 4 0 8 -24 7 -52 -2 -71 0 -74 40 -72 21 1 35 -3 35 -10 0 -7 3 -6 9
2 4 8 19 13 32 12 13 -1 36 -2 52 -1 24 1 27 4 23 27 -4 21 -2 25 12 20 15 -5
15 -5 0 8 -20 14 -25 31 -7 20 7 -4 7 1 -1 16 -11 21 -10 22 6 16 17 -5 17 -5
3 6 -16 14 -22 48 -7 48 4 0 8 5 8 11 0 5 -4 8 -8 5 -12 -7 -9 88 3 96 6 5 5
8 -2 8 -9 0 -12 13 -10 40 2 22 3 40 3 40 -1 0 -7 -4 -14 -9z"/>
<path d="M1760 3857 c-11 -9 -15 -31 -14 -87 0 -41 -3 -86 -8 -100 -8 -24 -7
-24 7 -6 15 20 15 20 30 0 9 -11 13 -13 10 -4 -4 12 4 15 43 15 l48 0 1 -78
c0 -43 3 -80 5 -83 3 -2 33 -4 67 -5 39 -1 58 -5 49 -10 -9 -6 -9 -9 -1 -9 6
0 15 5 18 10 3 6 14 10 25 10 24 0 27 12 25 95 -1 70 -1 70 26 71 18 1 26 -3
23 -11 -3 -6 2 -12 10 -12 8 0 12 6 9 13 -3 9 4 12 26 9 27 -4 31 -1 31 21 0
14 4 23 8 20 5 -3 9 1 9 9 0 8 -4 12 -10 8 -5 -3 -8 10 -7 28 1 19 2 48 1 66
-1 28 -4 31 -27 27 -16 -3 -23 -1 -19 6 3 5 1 10 -4 10 -6 0 -11 -4 -11 -8 0
-4 -27 -8 -60 -8 -34 0 -60 5 -60 11 0 7 -3 7 -8 0 -4 -5 -14 -10 -22 -10 -8
0 -18 5 -22 10 -5 6 -8 5 -8 -2 0 -7 -5 -13 -11 -13 -5 0 -7 5 -3 12 5 7 3 8
-7 2 -19 -12 -42 -11 -51 1 -5 6 -8 5 -8 -2 0 -7 -5 -13 -11 -13 -5 0 -7 6 -3
13 5 8 2 8 -9 -2 -13 -10 -17 -10 -17 -1 0 10 -3 10 -15 0 -11 -9 -19 -9 -28
-2 -8 7 -17 7 -27 -1z"/>
<path d="M5534 3846 c1 -8 5 -18 8 -22 4 -3 5 1 4 10 -1 8 -5 18 -8 22 -4 3
-5 -1 -4 -10z"/>
<path d="M3910 3820 c8 -5 20 -10 25 -10 6 0 3 5 -5 10 -8 5 -19 10 -25 10 -5
0 -3 -5 5 -10z"/>
<path d="M2205 3800 c3 -5 8 -10 11 -10 2 0 4 5 4 10 0 6 -5 10 -11 10 -5 0
-7 -4 -4 -10z"/>
<path d="M3892 3794 c2 -8 7 -14 12 -14 5 1 13 -4 18 -12 8 -10 9 -10 5 2 -2
8 -10 14 -17 12 -8 -2 -10 3 -7 13 4 8 2 15 -4 15 -6 0 -9 -7 -7 -16z"/>
<path d="M5551 3787 c-8 -10 -7 -14 2 -14 8 0 14 6 14 14 0 7 -1 13 -2 13 -2
0 -8 -6 -14 -13z"/>
<path d="M3866 3775 c-3 -9 -2 -14 3 -10 5 3 11 -1 14 -7 2 -7 7 -11 10 -8 3
3 0 13 -8 23 -11 16 -13 16 -19 2z"/>
<path d="M2210 3770 c-8 -5 -12 -12 -9 -15 4 -3 12 1 19 10 14 17 11 19 -10 5z"/>
<path d="M3952 3761 c-11 -7 -11 -9 0 -14 9 -3 15 1 15 9 0 8 -1 14 -1 14 -1
0 -7 -4 -14 -9z"/>
<path d="M3910 3740 c0 -5 5 -10 10 -10 6 0 10 5 10 10 0 6 -4 10 -10 10 -5 0
-10 -4 -10 -10z"/>
<path d="M5547 3733 c3 -7 6 -13 8 -13 1 0 7 6 13 13 8 10 6 13 -7 13 -11 0
-17 -6 -14 -13z"/>
<path d="M2256 3722 c-3 -5 1 -9 9 -9 8 0 12 4 9 9 -3 4 -7 8 -9 8 -2 0 -6 -4
-9 -8z"/>
<path d="M3933 3693 c-3 -7 -10 -10 -16 -6 -6 3 -7 1 -3 -5 10 -17 26 -15 26
4 0 8 4 13 9 9 5 -3 12 -2 15 3 3 5 -2 9 -10 9 -9 0 -18 -6 -21 -14z"/>
<path d="M914 3686 c1 -8 5 -18 8 -22 4 -3 5 1 4 10 -1 8 -5 18 -8 22 -4 3 -5
-1 -4 -10z"/>
<path d="M5582 3684 c10 -10 20 -16 22 -13 3 3 -5 11 -17 18 -21 13 -21 12 -5
-5z"/>
<path d="M5550 3681 c0 -6 4 -13 10 -16 6 -3 7 1 4 9 -7 18 -14 21 -14 7z"/>
<path d="M1500 3676 c0 -2 8 -10 18 -17 15 -13 16 -12 3 4 -13 16 -21 21 -21
13z"/>
<path d="M1216 3653 c-6 -14 -5 -15 5 -6 7 7 10 15 7 18 -3 3 -9 -2 -12 -12z"/>
<path d="M2074 3659 c-4 -7 -3 -9 4 -5 5 3 13 0 15 -6 4 -9 6 -10 6 -1 1 17
-16 25 -25 12z"/>
<path d="M3950 3660 c0 -5 5 -10 11 -10 5 0 7 5 4 10 -3 6 -8 10 -11 10 -2 0
-4 -4 -4 -10z"/>
<path d="M656 3647 c3 -10 9 -15 12 -12 3 3 0 11 -7 18 -10 9 -11 8 -5 -6z"/>
<path d="M3930 3643 c6 -14 7 -23 1 -23 -5 0 -12 6 -14 13 -4 9 -6 9 -6 0 -1
-16 19 -27 30 -16 5 5 3 17 -7 29 -15 18 -15 18 -4 -3z"/>
<path d="M1490 3640 c0 -5 5 -10 10 -10 6 0 10 5 10 10 0 6 -4 10 -10 10 -5 0
-10 -4 -10 -10z"/>
<path d="M5554 3642 c4 -3 14 -7 22 -8 9 -1 13 0 10 4 -4 3 -14 7 -22 8 -9 1
-13 0 -10 -4z"/>
<path d="M2075 3620 c3 -5 8 -10 11 -10 2 0 4 5 4 10 0 6 -5 10 -11 10 -5 0
-7 -4 -4 -10z"/>
<path d="M3937 3589 c7 -7 15 -10 18 -7 3 3 -2 9 -12 12 -14 6 -15 5 -6 -5z"/>
<path d="M5593 3585 c0 -8 4 -12 9 -9 5 3 6 10 3 15 -9 13 -12 11 -12 -6z"/>
<path d="M3910 3570 c0 -5 5 -10 10 -10 6 0 10 5 10 10 0 6 -4 10 -10 10 -5 0
-10 -4 -10 -10z"/>
<path d="M3890 3555 c0 -8 4 -15 10 -15 5 0 7 7 4 15 -4 8 -8 15 -10 15 -2 0
-4 -7 -4 -15z"/>
<path d="M5574 3529 c-3 -6 -2 -15 3 -20 5 -5 9 -1 9 11 0 23 -2 24 -12 9z"/>
<path d="M3920 3510 c14 -10 27 -17 29 -14 6 5 -31 33 -44 33 -5 1 1 -8 15
-19z"/>
<path d="M495 3490 c-4 -6 -11 -7 -17 -4 -7 4 -8 2 -4 -5 6 -9 11 -9 22 0 14
11 18 19 10 19 -3 0 -8 -5 -11 -10z"/>
<path d="M595 3489 c-4 -6 -5 -12 -2 -15 2 -3 7 2 10 11 7 17 1 20 -8 4z"/>
<path d="M773 3483 c0 -8 6 -9 19 -2 10 5 18 11 18 12 0 2 -8 3 -18 3 -10 0
-19 -6 -19 -13z"/>
<path d="M1364 3478 l-19 -23 23 19 c21 18 27 26 19 26 -2 0 -12 -10 -23 -22z"/>
<path d="M1525 3490 c-16 -7 -17 -9 -3 -9 9 -1 20 4 23 9 7 11 7 11 -20 0z"/>
<path d="M1926 3485 c-11 -8 -15 -15 -9 -15 6 0 16 7 23 15 16 19 11 19 -14 0z"/>
<path d="M1469 3477 c6 -8 7 -18 3 -22 -4 -5 -1 -5 6 -1 10 6 10 11 1 22 -6 8
-14 14 -16 14 -3 0 0 -6 6 -13z"/>
<path d="M1650 3481 c0 -6 4 -13 10 -16 6 -3 7 1 4 9 -7 18 -14 21 -14 7z"/>
<path d="M5636 3482 c-3 -5 1 -9 9 -9 8 0 12 4 9 9 -3 4 -7 8 -9 8 -2 0 -6 -4
-9 -8z"/>
<path d="M3865 3470 c-3 -6 3 -22 15 -37 21 -27 21 -27 1 -35 -28 -10 -24 -44
11 -92 15 -22 28 -35 28 -28 0 7 5 12 11 12 5 0 7 -4 4 -10 -3 -5 -1 -10 5
-10 7 0 10 6 8 13 -3 6 -11 12 -19 12 -15 0 -59 44 -59 59 0 5 11 -1 24 -13
19 -17 26 -20 32 -9 4 7 4 10 0 6 -10 -8 -63 39 -54 47 3 3 15 7 26 8 16 1 18
5 12 17 -5 9 -16 22 -24 30 -9 7 -16 16 -16 21 0 18 15 8 35 -20 11 -17 21
-28 23 -26 6 6 -38 65 -48 65 -5 0 -12 -5 -15 -10z"/>
<path d="M3940 3464 c-11 -12 -10 -18 3 -30 9 -8 12 -9 7 -2 -12 15 -13 31 -2
24 5 -3 9 1 9 9 0 19 -2 19 -17 -1z"/>
<path d="M1506 3462 c-3 -5 1 -9 9 -9 8 0 12 4 9 9 -3 4 -7 8 -9 8 -2 0 -6 -4
-9 -8z"/>
<path d="M1570 3459 c0 -5 5 -7 10 -4 6 3 10 8 10 11 0 2 -4 4 -10 4 -5 0 -10
-5 -10 -11z"/>
<path d="M5540 3465 c0 -7 30 -13 34 -7 3 4 -4 9 -15 9 -10 1 -19 0 -19 -2z"/>
<path d="M1315 3451 c-3 -5 -2 -12 3 -15 5 -3 9 1 9 9 0 17 -3 19 -12 6z"/>
<path d="M1358 3419 c-31 -15 -67 -41 -79 -58 -13 -18 -28 -27 -38 -24 -13 4
-13 3 -2 -5 11 -8 11 -16 1 -46 -16 -48 -13 -127 5 -170 19 -45 122 -126 138
-110 3 3 10 -4 17 -15 7 -14 7 -21 0 -21 -5 0 -10 5 -10 10 0 6 -5 10 -11 10
-5 0 -7 -4 -4 -10 4 -6 -23 -10 -73 -10 l-80 0 3 -41 c2 -22 6 -43 9 -46 3 -3
0 -13 -7 -21 -9 -12 -9 -14 0 -9 12 8 50 -49 45 -66 -1 -5 2 -6 8 -2 5 3 10 1
10 -4 0 -6 5 -11 11 -11 7 0 19 -8 28 -17 17 -19 31 -23 93 -26 21 -1 38 -5
38 -8 0 -9 68 -5 76 4 4 4 17 7 28 7 25 0 83 34 113 66 12 13 20 24 17 24 -3
0 3 13 12 29 10 17 21 28 25 25 4 -2 11 1 15 7 4 8 3 9 -5 5 -6 -4 -14 0 -18
9 -3 10 0 21 8 26 11 6 11 9 1 9 -10 0 -10 5 -2 20 6 12 7 20 1 20 -5 0 -8 8
-7 17 2 9 -3 28 -10 42 -7 13 -11 28 -9 32 3 4 -2 10 -11 13 -8 3 -12 10 -9
16 3 5 -1 10 -10 10 -8 0 -18 7 -21 15 -5 13 -70 41 -86 37 -5 -1 -8 6 -9 16
0 9 -3 12 -5 7 -2 -6 -22 -9 -44 -7 -27 3 -38 8 -33 16 4 6 1 6 -9 -2 -14 -11
-15 -9 -13 16 1 16 5 33 8 39 3 5 0 10 -7 10 -9 0 -12 -9 -9 -29 4 -28 -10
-40 -20 -15 -6 16 7 52 19 52 5 0 14 4 21 8 6 4 15 2 19 -4 5 -8 3 -9 -6 -4
-8 5 -11 4 -6 -3 4 -6 13 -9 21 -5 9 3 16 -1 16 -8 1 -8 2 -21 3 -29 1 -12 19
-16 84 -18 50 -2 89 2 97 8 7 6 15 7 17 3 3 -4 3 -1 0 7 -3 8 -6 27 -7 42 -2
14 -6 32 -10 38 -5 9 0 10 16 6 19 -4 18 -3 -3 6 -16 7 -28 17 -28 24 0 7 -16
27 -35 45 -28 27 -32 35 -22 48 11 14 10 14 -5 2 -14 -10 -21 -11 -32 -1 -8 6
-47 14 -87 16 -39 3 -75 6 -78 8 -3 1 -32 -10 -63 -25z m122 -432 c28 -2 50
-19 50 -40 0 -22 -12 -28 -29 -14 -14 11 -14 10 -2 -6 8 -9 11 -21 7 -24 -4
-4 -11 -1 -15 6 -7 10 -9 11 -13 1 -3 -10 -10 -10 -33 1 -24 11 -30 21 -31 51
-2 34 0 37 19 33 12 -3 33 -7 47 -8z"/>
<path d="M1491 2964 c0 -11 3 -14 6 -6 3 7 2 16 -1 19 -3 4 -6 -2 -5 -13z"/>
<path d="M1430 2958 c0 -6 3 -8 7 -5 3 4 12 2 20 -5 11 -8 12 -7 7 6 -7 18
-34 22 -34 4z"/>
<path d="M5585 3440 c-3 -6 1 -7 9 -4 18 7 21 14 7 14 -6 0 -13 -4 -16 -10z"/>
<path d="M308 3383 c-3 -43 6 -153 11 -128 1 6 8 1 16 -9 15 -20 15 -20 15 0
1 18 1 18 14 1 14 -18 14 -18 19 0 3 10 6 2 7 -17 5 -100 4 -140 -3 -140 -5 0
-5 -5 -2 -10 9 -15 10 -88 1 -132 -6 -34 -10 -38 -37 -38 -18 0 -28 4 -24 10
3 6 0 10 -8 10 -11 0 -14 15 -13 65 2 76 5 74 -106 73 -77 -1 -78 -1 -79 -27
-1 -14 -1 -30 0 -35 1 -4 -4 -15 -11 -24 -10 -12 -10 -14 0 -8 8 5 12 -2 13
-26 2 -78 38 -155 89 -184 16 -10 27 -21 24 -26 -3 -5 -2 -7 3 -6 4 1 24 -1
43 -5 19 -4 45 -9 58 -11 13 -3 22 0 23 7 0 7 4 3 9 -8 5 -11 9 -15 9 -8 1 12
18 12 38 0 9 -6 11 -3 7 7 -6 16 5 21 35 17 7 -2 10 2 6 8 -3 6 -1 11 4 11 11
0 102 85 101 95 0 3 0 6 1 8 6 21 11 49 12 77 1 19 9 41 17 48 8 8 10 11 4 8
-8 -4 -13 9 -16 39 -2 33 1 45 10 45 10 0 9 4 -3 16 -19 19 -12 32 9 15 11 -9
16 -9 22 0 4 7 3 9 -3 6 -29 -18 -50 87 -23 111 8 8 10 11 4 8 -8 -4 -13 9
-16 39 -2 33 1 45 10 45 10 0 9 4 -3 16 -12 12 -13 19 -5 24 7 4 8 10 3 13 -5
4 -8 20 -5 37 l4 30 -140 0 -140 0 -4 -47z"/>
<path d="M667 3423 c-3 -8 1 -511 5 -545 1 -9 5 -15 9 -12 14 8 19 -29 7 -45
-11 -14 -11 -14 3 -4 13 11 18 9 29 -12 7 -14 21 -27 32 -31 10 -3 18 -9 18
-14 0 -5 18 -15 40 -21 22 -7 40 -17 40 -23 0 -6 5 -4 10 4 5 8 10 10 10 4 0
-6 7 -11 15 -11 8 0 15 4 15 9 0 5 5 6 10 3 6 -4 8 -10 5 -15 -3 -5 -1 -12 5
-15 6 -4 9 -1 8 6 -2 6 9 15 25 20 18 5 27 4 27 -4 0 -8 3 -8 8 -2 10 15 49
35 67 35 8 0 15 4 15 9 0 5 9 12 20 16 11 3 19 12 17 18 -1 7 4 11 11 9 8 -1
11 2 8 7 -4 5 -2 12 3 15 5 4 12 2 16 -4 3 -5 12 -10 18 -10 7 0 6 4 -3 10
-19 12 -20 26 -2 73 8 20 12 46 9 57 -3 11 -2 20 3 20 4 0 4 18 0 40 -4 23 -3
40 2 40 5 0 6 6 2 12 -14 22 -12 49 3 44 9 -4 9 1 -3 19 -15 24 -15 25 2 26
18 0 18 1 -1 9 -11 5 -15 9 -8 9 8 1 9 10 3 31 -7 25 -6 30 8 31 14 0 13 2 -3
9 -11 5 -15 9 -8 9 7 1 11 7 8 14 -8 25 -13 87 -6 87 4 0 5 18 3 40 l-4 40
-97 0 -97 0 -1 -244 c0 -257 -1 -262 -46 -279 -26 -10 -67 33 -63 68 2 15 9
31 17 37 11 8 11 9 -3 5 -13 -5 -16 0 -13 21 1 15 8 26 15 24 6 -1 9 2 5 8 -3
6 -10 8 -14 6 -4 -3 -8 8 -8 24 0 17 5 27 10 23 6 -4 7 -1 1 8 -12 20 -12 121
0 138 8 11 8 13 -1 7 -8 -4 -13 -1 -13 8 0 10 6 13 18 10 16 -5 16 -5 -1 6
-14 9 -15 15 -6 32 8 15 8 19 -1 13 -7 -4 -10 1 -9 17 6 69 8 68 -95 68 -52 0
-97 -3 -99 -7z"/>
<path d="M1737 3423 c-2 -5 -3 -25 -2 -46 1 -25 -4 -41 -12 -44 -11 -4 -10 -8
4 -18 15 -11 15 -15 4 -29 -7 -9 -10 -16 -5 -16 4 0 3 -5 -4 -12 -7 -7 -12
-16 -12 -22 0 -5 7 -1 15 10 8 10 15 14 15 8 0 -6 20 -10 52 -8 29 1 56 -3 62
-9 17 -18 20 -118 4 -128 -10 -7 -10 -9 0 -9 16 0 15 -218 -2 -239 -9 -12 -8
-13 2 -7 11 6 13 -1 12 -35 -4 -87 -3 -89 31 -89 21 0 28 -4 23 -12 -6 -10 -4
-10 7 0 19 17 53 16 46 -3 -4 -8 -2 -17 4 -20 5 -4 9 -3 8 2 -5 31 22 45 46
25 6 -4 9 -5 8 -3 -2 2 5 10 15 17 12 10 13 13 3 14 -11 0 -11 3 -1 15 9 11 9
15 1 15 -7 0 -9 5 -6 10 4 6 12 7 18 3 9 -5 9 -3 1 8 -6 8 -14 27 -16 42 -4
22 -1 30 16 37 l21 9 -21 0 c-18 1 -20 6 -16 29 3 15 7 21 9 15 3 -7 10 -13
16 -13 7 1 2 9 -11 20 -13 11 -21 24 -17 30 10 17 14 50 6 50 -9 0 -8 31 3 48
4 7 2 12 -5 12 -7 0 -5 9 6 26 9 15 13 24 7 20 -11 -7 -24 19 -14 29 10 10 8
75 -2 75 -16 0 0 10 23 15 11 2 21 0 21 -5 0 -4 7 -11 16 -14 14 -5 15 -4 4 9
-10 12 -7 14 24 13 19 -1 33 -5 30 -9 -2 -4 -1 -10 4 -13 4 -2 9 10 10 27 1
18 10 38 20 46 16 13 16 13 0 8 -12 -4 -18 -1 -18 8 0 7 8 16 18 18 16 4 16 5
0 6 -10 0 -18 6 -18 12 0 5 5 7 10 4 6 -3 10 -1 10 4 0 6 -4 11 -10 11 -5 0
-10 14 -10 30 l0 30 -224 0 c-124 0 -227 -3 -229 -7z"/>
<path d="M5568 3413 c-10 -2 -18 -9 -18 -15 0 -6 3 -8 7 -5 3 4 11 3 17 -3 8
-6 12 -3 12 11 0 10 0 18 -1 18 0 -1 -8 -3 -17 -6z"/>
<path d="M5636 3402 c-3 -5 1 -9 9 -9 8 0 12 4 9 9 -3 4 -7 8 -9 8 -2 0 -6 -4
-9 -8z"/>
<path d="M3895 3370 c3 -5 8 -10 11 -10 2 0 4 5 4 10 0 6 -5 10 -11 10 -5 0
-7 -4 -4 -10z"/>
<path d="M3920 3360 c0 -5 5 -10 11 -10 5 0 7 5 4 10 -3 6 -8 10 -11 10 -2 0
-4 -4 -4 -10z"/>
<path d="M3939 3329 c-6 -13 -7 -19 -1 -15 6 3 12 0 15 -6 2 -7 4 -1 3 14 -1
34 -2 34 -17 7z"/>
<path d="M5560 3340 c-9 -6 -10 -10 -3 -10 6 0 15 5 18 10 8 12 4 12 -15 0z"/>
<path d="M5593 3329 c-2 -23 3 -25 10 -4 4 8 3 16 -1 19 -4 3 -9 -4 -9 -15z"/>
<path d="M610 3279 c0 -5 5 -7 10 -4 6 3 10 8 10 11 0 2 -4 4 -10 4 -5 0 -10
-5 -10 -11z"/>
<path d="M5593 3265 c0 -8 4 -12 9 -9 5 3 6 10 3 15 -9 13 -12 11 -12 -6z"/>
<path d="M1775 3231 c-3 -5 -2 -12 3 -15 5 -3 9 1 9 9 0 17 -3 19 -12 6z"/>
<path d="M2080 3228 c14 -16 13 -31 -2 -22 -7 5 -8 3 -3 -5 5 -9 10 -10 18 -2
8 8 6 15 -6 26 -9 8 -12 10 -7 3z"/>
<path d="M1470 3220 c0 -5 7 -7 15 -4 8 4 15 8 15 10 0 2 -7 4 -15 4 -8 0 -15
-4 -15 -10z"/>
<path d="M1828 3223 c6 -2 9 -10 6 -15 -4 -7 -2 -8 5 -4 13 9 5 26 -12 25 -9
0 -8 -2 1 -6z"/>
<path d="M875 3201 c-3 -5 -2 -12 3 -15 5 -3 9 1 9 9 0 17 -3 19 -12 6z"/>
<path d="M3945 3201 c-3 -5 -2 -12 3 -15 5 -3 9 1 9 9 0 17 -3 19 -12 6z"/>
<path d="M5579 3193 c-13 -16 -12 -17 4 -4 9 7 17 15 17 17 0 8 -8 3 -21 -13z"/>
<path d="M1576 3168 c3 -5 10 -6 15 -3 13 9 11 12 -6 12 -8 0 -12 -4 -9 -9z"/>
<path d="M2266 3162 c-3 -5 1 -9 9 -9 8 0 12 4 9 9 -3 4 -7 8 -9 8 -2 0 -6 -4
-9 -8z"/>
<path d="M3934 3159 c-3 -6 -1 -16 6 -22 10 -9 12 -8 7 5 -3 9 -1 19 6 22 9 3
9 5 0 5 -6 1 -15 -4 -19 -10z"/>
<path d="M5550 3159 c0 -5 5 -7 10 -4 6 3 10 8 10 11 0 2 -4 4 -10 4 -5 0 -10
-5 -10 -11z"/>
<path d="M5554 3123 c2 -9 8 -18 15 -19 6 -1 7 0 1 3 -5 2 -8 9 -5 13 3 5 1
11 -4 14 -5 4 -8 -2 -7 -11z"/>
<path d="M893 3115 c0 -8 4 -12 9 -9 5 3 6 10 3 15 -9 13 -12 11 -12 -6z"/>
<path d="M3921 3114 c0 -11 3 -14 6 -6 3 7 2 16 -1 19 -3 4 -6 -2 -5 -13z"/>
<path d="M1210 3106 c0 -2 7 -7 16 -10 8 -3 12 -2 9 4 -6 10 -25 14 -25 6z"/>
<path d="M3935 3090 c-3 -6 1 -7 9 -4 18 7 21 14 7 14 -6 0 -13 -4 -16 -10z"/>
<path d="M5579 3073 c-13 -16 -12 -17 4 -4 9 7 17 15 17 17 0 8 -8 3 -21 -13z"/>
<path d="M3925 3060 c3 -5 11 -10 16 -10 6 0 7 5 4 10 -3 6 -11 10 -16 10 -6
0 -7 -4 -4 -10z"/>
<path d="M5610 3060 c0 -5 5 -10 11 -10 5 0 7 5 4 10 -3 6 -8 10 -11 10 -2 0
-4 -4 -4 -10z"/>
<path d="M610 3039 c0 -5 5 -7 10 -4 6 3 10 8 10 11 0 2 -4 4 -10 4 -5 0 -10
-5 -10 -11z"/>
<path d="M909 3003 c-13 -16 -12 -17 4 -4 9 7 17 15 17 17 0 8 -8 3 -21 -13z"/>
<path d="M3900 3000 c0 -5 5 -10 11 -10 5 0 7 5 4 10 -3 6 -8 10 -11 10 -2 0
-4 -4 -4 -10z"/>
<path d="M3930 3000 c0 -5 5 -10 10 -10 6 0 10 5 10 10 0 6 -4 10 -10 10 -5 0
-10 -4 -10 -10z"/>
<path d="M5580 2985 c0 -2 6 -8 13 -14 10 -8 14 -7 14 2 0 8 -6 14 -14 14 -7
0 -13 -1 -13 -2z"/>
<path d="M3918 2973 c6 -2 10 -8 8 -12 -3 -4 4 -8 15 -8 12 -1 19 5 19 15 0
13 -2 14 -9 3 -6 -9 -11 -10 -15 -2 -4 6 -13 11 -19 10 -9 0 -8 -2 1 -6z"/>
<path d="M310 2961 c0 -6 4 -13 10 -16 6 -3 7 1 4 9 -7 18 -14 21 -14 7z"/>
<path d="M875 2961 c-3 -5 -2 -12 3 -15 5 -3 9 1 9 9 0 17 -3 19 -12 6z"/>
<path d="M5560 2955 c-11 -13 -10 -14 4 -9 9 3 16 10 16 15 0 13 -6 11 -20 -6z"/>
<path d="M3926 2918 c-6 -21 -7 -21 -17 -5 -5 9 -14 17 -20 17 -5 0 0 -10 11
-22 18 -19 22 -20 30 -8 10 15 13 40 6 40 -2 0 -7 -10 -10 -22z"/>
<path d="M5565 2930 c-16 -7 -17 -9 -3 -9 9 -1 20 4 23 9 7 11 7 11 -20 0z"/>
<path d="M5556 2898 c3 -5 10 -6 15 -3 13 9 11 12 -6 12 -8 0 -12 -4 -9 -9z"/>
<path d="M1167 2887 c-3 -8 1 -14 8 -14 7 0 11 6 8 14 -3 7 -6 13 -8 13 -2 0
-5 -6 -8 -13z"/>
<path d="M3936 2874 c-10 -25 1 -29 14 -5 6 12 7 21 1 21 -5 0 -12 -7 -15 -16z"/>
<path d="M5560 2860 c-9 -6 -10 -10 -3 -10 6 0 15 5 18 10 8 12 4 12 -15 0z"/>
<path d="M1715 2849 c-4 -6 -5 -12 -2 -15 2 -3 7 2 10 11 7 17 1 20 -8 4z"/>
<path d="M5586 2842 c-3 -5 1 -9 9 -9 8 0 15 4 15 9 0 4 -4 8 -9 8 -6 0 -12
-4 -15 -8z"/>
<path d="M5635 2840 c-3 -5 -1 -10 4 -10 6 0 11 5 11 10 0 6 -2 10 -4 10 -3 0
-8 -4 -11 -10z"/>
<path d="M3910 2830 c0 -5 5 -10 10 -10 6 0 10 5 10 10 0 6 -4 10 -10 10 -5 0
-10 -4 -10 -10z"/>
<path d="M5559 2828 c-1 -2 -3 -13 -4 -25 -3 -24 20 -21 29 4 6 14 4 14 -11 2
-15 -12 -16 -12 -10 4 5 13 1 26 -4 15z"/>
<path d="M1135 2791 c-3 -5 -2 -12 3 -15 5 -3 9 1 9 9 0 17 -3 19 -12 6z"/>
<path d="M534 2779 c-3 -6 -2 -15 3 -20 5 -5 9 -1 9 11 0 23 -2 24 -12 9z"/>
<path d="M3931 2763 c11 -19 15 -20 22 -7 5 9 6 18 3 21 -3 4 -6 1 -6 -7 0
-10 -3 -10 -17 1 -15 13 -15 12 -2 -8z"/>
<path d="M5565 2770 c-16 -7 -17 -9 -3 -9 9 -1 20 4 23 9 7 11 7 11 -20 0z"/>
<path d="M5599 2763 c0 -5 -2 -16 -4 -26 -2 -11 -1 -16 3 -13 8 8 14 46 7 46
-3 0 -5 -3 -6 -7z"/>
<path d="M5636 2758 c3 -5 10 -6 15 -3 13 9 11 12 -6 12 -8 0 -12 -4 -9 -9z"/>
<path d="M1075 2740 c-3 -5 -1 -10 4 -10 6 0 11 5 11 10 0 6 -2 10 -4 10 -3 0
-8 -4 -11 -10z"/>
<path d="M1645 2740 c-3 -6 1 -7 9 -4 18 7 21 14 7 14 -6 0 -13 -4 -16 -10z"/>
<path d="M5556 2738 c3 -5 10 -6 15 -3 13 9 11 12 -6 12 -8 0 -12 -4 -9 -9z"/>
<path d="M3914 2718 c-4 -6 -3 -8 3 -5 6 4 14 0 17 -9 4 -9 9 -15 11 -12 8 7
-5 38 -15 38 -5 0 -12 -5 -16 -12z"/>
<path d="M946 2698 c3 -5 10 -6 15 -3 13 9 11 12 -6 12 -8 0 -12 -4 -9 -9z"/>
<path d="M1435 2700 c3 -5 8 -10 11 -10 2 0 4 5 4 10 0 6 -5 10 -11 10 -5 0
-7 -4 -4 -10z"/>
<path d="M5560 2700 c-9 -6 -10 -10 -3 -10 6 0 15 5 18 10 8 12 4 12 -15 0z"/>
<path d="M1513 2685 c0 -8 4 -12 9 -9 5 3 6 10 3 15 -9 13 -12 11 -12 -6z"/>
<path d="M336 2673 c-6 -14 -5 -15 5 -6 7 7 10 15 7 18 -3 3 -9 -2 -12 -12z"/>
<path d="M2273 2675 c0 -8 4 -12 9 -9 5 3 6 10 3 15 -9 13 -12 11 -12 -6z"/>
<path d="M3934 2655 c-9 -14 -14 -28 -10 -32 3 -3 6 -1 6 6 0 7 4 9 10 6 6 -4
7 1 3 11 -4 10 -2 15 4 11 5 -3 10 0 10 8 0 21 -4 19 -23 -10z"/>
<path d="M1400 2660 c8 -5 20 -10 25 -10 6 0 3 5 -5 10 -8 5 -19 10 -25 10 -5
0 -3 -5 5 -10z"/>
<path d="M5555 2660 c-6 -10 11 -50 21 -50 3 0 2 5 -1 10 -4 6 -1 19 7 28 12
16 11 16 -6 2 -18 -14 -19 -13 -13 3 7 18 2 23 -8 7z"/>
<path d="M910 2656 c0 -2 8 -10 18 -17 15 -13 16 -12 3 4 -13 16 -21 21 -21
13z"/>
<path d="M1052 2648 c-7 -7 -20 -13 -29 -13 -14 0 -17 -12 -19 -69 -1 -58 -5
-73 -23 -87 -12 -10 -30 -15 -39 -12 -46 16 -59 52 -17 48 14 -2 23 1 19 6 -3
5 -9 7 -14 4 -4 -3 -15 -2 -24 1 -12 5 -13 10 -5 25 7 14 6 19 -3 19 -9 0 -9
3 2 10 9 6 10 10 3 10 -6 0 -10 9 -8 20 2 12 -4 24 -16 30 -14 8 -19 7 -19 -2
0 -9 -3 -9 -12 0 -8 8 -15 9 -25 1 -9 -9 -13 -8 -13 0 0 7 -5 9 -12 5 -16 -10
-50 -10 -66 0 -16 10 -25 -15 -26 -78 -1 -28 -5 -57 -10 -65 -6 -10 -6 -12 2
-7 16 10 15 -7 0 -23 -11 -10 -9 -11 7 -5 17 7 18 6 7 -8 -11 -14 -11 -18 0
-25 19 -12 50 -71 43 -82 -3 -5 0 -13 6 -17 8 -4 9 -3 5 4 -10 17 2 15 32 -6
15 -10 35 -22 45 -25 10 -4 16 -11 13 -15 -3 -5 6 -7 21 -4 17 3 24 1 19 -6
-3 -6 -2 -14 4 -17 6 -4 9 -1 8 6 -2 9 16 13 64 13 36 1 64 5 61 9 -3 5 3 7
13 6 11 -2 32 9 48 24 16 15 35 27 44 27 8 0 12 6 8 15 -3 8 -2 15 2 15 11 0
46 83 43 104 -2 12 1 16 10 11 8 -6 10 -4 3 6 -13 22 -14 79 -1 79 8 0 7 3 -1
9 -8 4 -13 11 -13 15 3 23 -1 35 -15 40 -8 3 -13 2 -10 -2 6 -10 -36 -8 -52 2
-7 4 -12 3 -12 -1 0 -5 -9 -9 -20 -9 -13 0 -19 5 -16 13 7 16 3 16 -12 1z"/>
<path d="M1912 2650 c2 -8 -5 -14 -16 -15 -18 0 -20 -9 -20 -170 0 -170 0
-170 22 -170 13 0 28 -7 33 -15 9 -13 10 -13 6 1 -4 12 3 15 35 13 22 -1 44
-8 49 -15 7 -11 9 -10 9 5 0 16 2 17 17 5 11 -10 14 -10 9 -1 -4 6 -3 12 1 12
5 0 8 12 8 28 -1 15 4 33 9 41 8 10 8 13 1 9 -7 -4 -11 8 -11 32 0 23 4 36 9
33 6 -4 7 -1 1 8 -4 8 -9 50 -10 94 -2 102 -1 98 -19 91 -8 -3 -15 0 -15 6 0
9 -3 9 -12 0 -8 -8 -15 -9 -25 -1 -10 9 -13 8 -13 -2 0 -12 -2 -12 -9 0 -6 10
-10 10 -16 1 -5 -8 -12 -6 -27 7 -14 13 -19 14 -16 3z"/>
<path d="M488 2644 c-5 -5 -22 -9 -48 -13 -3 -1 -4 -27 -3 -58 1 -32 -4 -64
-10 -72 -10 -12 -9 -13 3 -6 8 4 6 -1 -5 -12 -19 -19 -61 -20 -49 -2 3 5 -2 9
-10 9 -9 0 -16 5 -16 11 0 5 6 7 13 3 9 -6 9 -5 0 7 -6 8 -13 37 -15 64 l-3
50 -75 -2 c-41 0 -81 -1 -88 -2 -9 -1 -13 -14 -11 -44 2 -24 0 -48 -4 -54 -4
-6 -3 -14 1 -17 5 -3 9 -16 8 -28 -3 -38 24 -91 69 -135 24 -24 52 -43 64 -43
11 0 25 -8 30 -17 6 -10 11 -13 11 -7 0 12 69 12 89 -1 10 -6 12 -4 6 5 -6 10
-4 12 8 7 10 -3 17 -3 17 1 0 9 60 37 79 37 8 0 15 9 17 19 1 11 10 23 18 28
9 5 21 18 27 30 8 14 8 18 0 14 -7 -5 -9 -1 -5 8 3 9 10 16 14 16 5 0 8 44 7
98 -2 71 -5 96 -14 95 -7 -2 -13 2 -13 8 0 8 -6 7 -17 -2 -14 -12 -15 -12 -9
-1 7 11 4 12 -13 3 -16 -9 -21 -9 -21 0 0 8 -4 9 -13 0 -9 -7 -17 -7 -23 -1
-6 6 -13 8 -16 4z"/>
<path d="M1433 2642 c-7 -4 -36 -7 -65 -6 -29 1 -57 0 -61 -3 -12 -7 28 -42
67 -58 19 -8 36 -20 39 -27 4 -10 6 -10 6 0 1 6 6 12 12 12 5 0 8 -3 6 -7 -3
-5 11 -8 31 -7 53 2 79 -13 77 -43 -2 -44 -66 -60 -98 -23 -22 26 -22 37 1 43
9 3 -29 5 -86 6 -98 1 -103 0 -111 -21 -5 -13 -4 -33 0 -46 5 -13 7 -27 4 -32
-3 -5 0 -10 5 -12 6 -2 12 -13 13 -25 0 -12 4 -21 7 -20 3 1 19 -10 35 -26 17
-15 38 -30 48 -33 9 -3 17 -9 17 -12 0 -7 25 -12 68 -15 6 0 12 -4 12 -9 0 -5
5 -6 11 -2 7 4 31 8 54 9 60 4 113 25 147 58 15 16 28 31 28 35 0 3 10 17 23
30 12 14 16 22 9 17 -11 -6 -12 -3 -4 11 6 11 12 24 14 29 1 6 7 9 12 7 5 -2
4 4 -3 12 -8 9 -11 27 -9 41 3 13 2 26 -2 27 -5 2 -10 14 -12 28 -1 14 -10 33
-19 43 -17 19 -67 26 -88 13 -6 -4 -11 -2 -11 4 0 7 -6 8 -19 1 -10 -6 -21 -8
-24 -4 -10 9 -51 10 -69 1 -12 -6 -18 -5 -18 2 0 7 -7 7 -21 -1 -15 -8 -19 -8
-15 0 8 13 6 14 -11 3z"/>
<path d="M5593 2625 c0 -8 4 -12 9 -9 5 3 6 10 3 15 -9 13 -12 11 -12 -6z"/>
<path d="M410 2580 c0 -5 5 -10 11 -10 5 0 7 5 4 10 -3 6 -8 10 -11 10 -2 0
-4 -4 -4 -10z"/>
<path d="M1360 2560 c0 -5 5 -10 11 -10 5 0 7 5 4 10 -3 6 -8 10 -11 10 -2 0
-4 -4 -4 -10z"/>
<path d="M2076 2527 c3 -10 9 -15 12 -12 3 3 0 11 -7 18 -10 9 -11 8 -5 -6z"/>
<path d="M2275 2531 c-3 -5 -2 -12 3 -15 5 -3 9 1 9 9 0 17 -3 19 -12 6z"/>
<path d="M387 2519 c7 -7 15 -10 18 -7 3 3 -2 9 -12 12 -14 6 -15 5 -6 -5z"/>
<path d="M1216 2507 c3 -10 9 -15 12 -12 3 3 0 11 -7 18 -10 9 -11 8 -5 -6z"/>
<path d="M1475 2511 c-3 -5 -2 -12 3 -15 5 -3 9 1 9 9 0 17 -3 19 -12 6z"/>
<path d="M5556 2511 c-3 -5 1 -11 9 -14 9 -4 12 -1 8 9 -6 16 -10 17 -17 5z"/>
<path d="M3905 2489 c-4 -12 -2 -26 5 -33 8 -8 9 -6 4 8 -5 13 -1 23 11 32 16
12 16 14 3 14 -9 0 -20 -9 -23 -21z"/>
<path d="M3950 2491 c0 -6 4 -13 10 -16 6 -3 7 1 4 9 -7 18 -14 21 -14 7z"/>
<path d="M5594 2486 c1 -8 5 -18 8 -22 4 -3 5 1 4 10 -1 8 -5 18 -8 22 -4 3
-5 -1 -4 -10z"/>
<path d="M3937 2464 c-12 -12 -8 -23 12 -34 15 -8 19 -7 17 5 -3 20 -21 37
-29 29z m18 -14 c3 -5 1 -10 -4 -10 -6 0 -11 5 -11 10 0 6 2 10 4 10 3 0 8 -4
11 -10z"/>
<path d="M5550 2449 c0 -5 5 -7 10 -4 6 3 10 8 10 11 0 2 -4 4 -10 4 -5 0 -10
-5 -10 -11z"/>
<path d="M2273 2435 c0 -8 4 -12 9 -9 5 3 6 10 3 15 -9 13 -12 11 -12 -6z"/>
<path d="M3892 2436 c7 -8 15 -12 17 -11 5 6 -10 25 -20 25 -5 0 -4 -6 3 -14z"/>
<path d="M1193 2425 c0 -8 4 -12 9 -9 5 3 6 10 3 15 -9 13 -12 11 -12 -6z"/>
<path d="M633 2410 c-1 -11 2 -22 6 -24 4 -3 7 4 6 14 -2 27 -10 33 -12 10z"/>
<path d="M3860 2420 c0 -5 7 -7 15 -4 8 4 15 8 15 10 0 2 -7 4 -15 4 -8 0 -15
-4 -15 -10z"/>
<path d="M3903 2394 c-15 -22 -18 -36 -11 -40 7 -4 8 -2 4 4 -4 7 -3 12 2 12
8 0 36 50 30 55 -2 1 -13 -13 -25 -31z"/>
<path d="M5556 2413 c-6 -14 -5 -15 5 -6 7 7 10 15 7 18 -3 3 -9 -2 -12 -12z"/>
<path d="M3945 2400 c3 -5 11 -10 16 -10 6 0 7 5 4 10 -3 6 -11 10 -16 10 -6
0 -7 -4 -4 -10z"/>
<path d="M1717 2393 c-10 -9 -9 -23 1 -23 5 0 9 7 9 15 0 17 -1 18 -10 8z"/>
<path d="M3925 2380 c-6 -9 -4 -11 5 -5 10 6 12 4 7 -9 -4 -9 -3 -15 2 -11 5
3 11 -1 14 -7 2 -7 7 -11 10 -8 3 3 -2 16 -12 29 -14 18 -20 21 -26 11z"/>
<path d="M5566 2362 c-3 -5 1 -9 9 -9 8 0 15 4 15 9 0 4 -4 8 -9 8 -6 0 -12
-4 -15 -8z"/>
<path d="M3910 2350 c0 -5 7 -13 16 -18 9 -5 15 -13 15 -18 -1 -14 22 -11 25
4 1 7 0 8 -3 2 -2 -5 -9 -10 -14 -10 -6 0 -8 4 -5 8 3 5 -4 16 -15 25 -10 9
-19 13 -19 7z"/>
<path d="M1675 2339 c-3 -4 2 -6 10 -5 21 3 28 13 10 13 -9 0 -18 -4 -20 -8z"/>
<path d="M5610 2340 c0 -5 5 -10 11 -10 5 0 7 5 4 10 -3 6 -8 10 -11 10 -2 0
-4 -4 -4 -10z"/>
<path d="M1116 2313 c-6 -14 -5 -15 5 -6 7 7 10 15 7 18 -3 3 -9 -2 -12 -12z"/>
<path d="M5550 2311 c0 -7 -4 -10 -8 -7 -5 3 -9 -2 -9 -10 0 -13 2 -13 16 0 8
9 12 19 8 22 -4 4 -7 2 -7 -5z"/>
<path d="M1350 2300 c0 -5 5 -10 11 -10 5 0 7 5 4 10 -3 6 -8 10 -11 10 -2 0
-4 -4 -4 -10z"/>
<path d="M490 2290 c-9 -6 -10 -10 -3 -10 6 0 15 5 18 10 8 12 4 12 -15 0z"/>
<path d="M2275 2291 c-3 -5 -2 -12 3 -15 5 -3 9 1 9 9 0 17 -3 19 -12 6z"/>
<path d="M3910 2290 c0 -5 5 -10 10 -10 6 0 10 5 10 10 0 6 -4 10 -10 10 -5 0
-10 -4 -10 -10z"/>
<path d="M307 2279 c7 -7 15 -10 18 -7 3 3 -2 9 -12 12 -14 6 -15 5 -6 -5z"/>
<path d="M5565 2280 c3 -5 8 -10 11 -10 2 0 4 5 4 10 0 6 -5 10 -11 10 -5 0
-7 -4 -4 -10z"/>
<path d="M987 2266 c-4 -10 -1 -13 8 -9 8 3 12 9 9 14 -7 12 -11 11 -17 -5z"/>
<path d="M1510 2276 c0 -2 8 -10 18 -17 15 -13 16 -12 3 4 -13 16 -21 21 -21
13z"/>
<path d="M1550 2271 c0 -5 7 -12 16 -15 14 -5 15 -4 4 9 -14 17 -20 19 -20 6z"/>
<path d="M3955 2269 c-4 -6 -5 -12 -2 -15 2 -3 7 2 10 11 7 17 1 20 -8 4z"/>
<path d="M386 2258 c3 -5 10 -6 15 -3 13 9 11 12 -6 12 -8 0 -12 -4 -9 -9z"/>
<path d="M460 2260 c-12 -7 -10 -9 7 -7 12 0 19 5 17 9 -6 10 -6 10 -24 -2z"/>
<path d="M1479 2253 c-12 -16 -12 -17 2 -6 9 7 20 9 24 5 5 -4 5 -1 1 6 -9 16
-11 15 -27 -5z"/>
<path d="M5535 2259 c-6 -8 -4 -10 5 -4 10 6 12 4 6 -11 -6 -15 -5 -17 5 -6 9
9 10 15 2 23 -8 8 -13 7 -18 -2z"/>
<path d="M3966 2243 c-8 -20 9 -40 19 -22 6 8 4 10 -5 4 -9 -5 -10 -2 -5 14 8
25 0 29 -9 4z"/>
<path d="M356 2242 c-3 -5 1 -9 9 -9 8 0 12 4 9 9 -3 4 -7 8 -9 8 -2 0 -6 -4
-9 -8z"/>
<path d="M3916 2234 c-9 -24 -2 -26 12 -4 7 11 8 20 3 20 -5 0 -12 -7 -15 -16z"/>
<path d="M1495 2229 c4 -10 0 -16 -10 -16 -8 0 -15 3 -15 6 0 7 -188 3 -207
-4 -16 -5 -2 -43 33 -91 13 -17 20 -35 16 -38 -3 -4 2 -4 13 0 14 6 17 4 12
-8 -4 -12 -1 -14 14 -11 11 3 19 0 19 -6 0 -7 5 -9 10 -6 6 3 10 2 10 -3 0 -6
10 -8 23 -4 18 5 20 3 10 -9 -10 -12 -8 -15 7 -15 10 0 17 3 14 7 -2 4 12 6
31 6 22 -1 34 -6 31 -12 -2 -7 2 -12 9 -12 7 0 11 6 8 14 -3 8 2 13 12 13 10
0 15 -5 12 -13 -3 -7 3 -13 14 -13 13 0 15 4 7 13 -8 10 -3 15 17 23 15 6 30
8 33 6 2 -3 18 8 34 24 16 17 34 30 39 30 5 0 9 6 9 14 0 8 6 21 13 28 6 7 13
25 15 40 l3 27 -108 -2 c-85 -2 -111 1 -121 13 -11 13 -11 13 -7 -1z"/>
<path d="M217 2222 c-37 -3 -38 -5 -31 -30 4 -15 7 -35 8 -44 0 -9 4 -15 7
-12 10 6 40 -37 33 -48 -3 -4 2 -5 10 -2 9 3 16 1 16 -5 0 -6 5 -11 10 -11 6
0 28 -8 49 -19 21 -10 52 -16 69 -15 26 3 30 1 27 -16 -2 -12 0 -18 6 -15 5 4
7 10 4 15 -5 9 15 27 30 25 6 0 16 -4 22 -8 9 -6 11 -3 6 9 -4 11 -3 15 5 10
6 -3 14 -1 17 5 4 5 14 8 22 5 8 -3 11 -1 8 4 -4 7 3 9 19 6 15 -3 24 -1 21 5
-4 5 -11 7 -16 4 -17 -11 -9 12 11 30 11 10 22 26 25 36 4 11 9 17 13 15 4 -2
8 9 9 25 l2 29 -82 1 c-45 1 -91 1 -102 1 -11 0 -36 -1 -55 -2 -19 0 -50 1
-67 3 -18 2 -33 -1 -33 -6 0 -6 -5 -6 -12 -1 -7 5 -30 8 -51 6z"/>
<path d="M817 2223 l-98 -4 7 -32 c3 -18 11 -35 16 -38 5 -3 8 -8 6 -11 -1 -3
17 -25 42 -49 24 -24 41 -39 37 -32 -5 7 0 9 14 6 11 -3 23 -12 26 -19 3 -8 9
-14 15 -14 5 0 6 5 3 10 -3 6 -1 10 4 10 6 0 11 -8 11 -17 0 -15 2 -16 10 -3
9 13 11 13 20 0 5 -8 10 -10 10 -4 0 6 12 11 28 11 15 0 36 4 47 8 17 6 18 5
5 -5 -13 -10 -12 -11 3 -6 10 3 21 6 23 6 3 0 2 6 -2 13 -4 6 -4 9 1 5 4 -4
21 2 38 14 17 12 28 17 24 11 -8 -13 18 -11 30 2 5 4 2 5 -6 0 -11 -6 -13 -4
-8 9 4 10 7 20 7 22 0 3 4 3 9 0 5 -3 12 6 16 21 4 17 9 23 14 15 4 -6 7 6 8
27 1 26 -3 41 -12 45 -8 3 -17 2 -19 -3 -3 -4 -24 -5 -48 -2 -24 3 -69 4 -101
1 -32 -3 -61 -2 -63 2 -3 4 -8 7 -12 6 -4 -1 -51 -4 -105 -5z"/>
<path d="M3927 2210 c-9 -11 -13 -20 -7 -20 5 0 14 9 20 20 6 11 9 20 8 20 -2
0 -11 -9 -21 -20z"/>
<path d="M1879 2188 c-1 -18 -1 -37 0 -42 1 -4 -4 -15 -11 -24 -11 -13 -11
-14 1 -7 11 6 13 3 8 -14 -7 -29 1 -51 20 -51 8 0 11 -5 7 -12 -5 -7 -3 -8 7
-2 20 12 111 16 104 4 -3 -6 -1 -10 4 -10 6 0 11 5 11 11 0 6 7 9 15 5 15 -5
17 -3 19 32 0 9 7 20 16 24 13 6 13 7 -1 7 -10 1 -16 11 -16 34 -2 84 7 77
-93 77 l-90 0 -1 -32z"/>
<path d="M2273 2195 c0 -8 4 -12 9 -9 5 3 6 10 3 15 -9 13 -12 11 -12 -6z"/>
<path d="M3862 2201 c-11 -6 -10 -10 5 -16 10 -5 21 -7 26 -7 11 3 8 -16 -3
-21 -6 -3 -5 -4 2 -3 17 3 17 31 1 32 -26 3 -28 6 -8 14 13 6 15 9 5 9 -8 0
-21 -3 -28 -8z"/>
<path d="M5540 2200 c-8 -5 -10 -10 -5 -10 6 0 17 5 25 10 8 5 11 10 5 10 -5
0 -17 -5 -25 -10z"/>
<path d="M3950 2170 c-9 -6 -10 -10 -3 -10 6 0 15 5 18 10 8 12 4 12 -15 0z"/>
<path d="M5510 2170 c-9 -6 -10 -10 -3 -10 6 0 15 5 18 10 8 12 4 12 -15 0z"/>
<path d="M3855 2160 c-3 -5 -3 -10 2 -10 4 0 1 -5 -7 -11 -12 -8 -12 -10 -1
-7 8 2 15 12 17 21 3 19 -2 22 -11 7z"/>
<path d="M3919 2158 c-5 -18 -6 -38 -1 -34 7 8 12 36 6 36 -2 0 -4 -1 -5 -2z"/>
<path d="M1715 2140 c-3 -5 -1 -10 4 -10 6 0 11 5 11 10 0 6 -2 10 -4 10 -3 0
-8 -4 -11 -10z"/>
<path d="M577 2111 c-10 -14 -10 -14 4 -4 9 7 18 10 21 7 3 -3 8 -1 12 4 9 16
-24 9 -37 -7z"/>
<path d="M3874 2122 c3 -5 -1 -13 -10 -16 -9 -4 -14 -9 -11 -13 4 -3 -1 -12
-11 -20 -16 -12 -16 -13 2 -6 14 5 17 3 11 -7 -5 -8 -4 -11 3 -6 6 3 9 16 7
27 -3 15 0 19 11 15 10 -4 13 -2 8 6 -5 8 -2 9 9 5 24 -9 21 0 -4 14 -12 6
-19 7 -15 1z"/>
<path d="M3933 2116 c-3 -6 -3 -8 2 -4 4 4 13 3 20 -2 8 -7 12 -5 12 3 0 16
-25 18 -34 3z"/>
<path d="M5508 2123 c6 -2 9 -10 6 -15 -4 -7 -2 -8 4 -4 18 11 14 26 -5 25
-11 0 -13 -3 -5 -6z"/>
<path d="M3980 2106 c0 -2 9 -6 20 -9 11 -3 18 -1 14 4 -5 9 -34 13 -34 5z"/>
<path d="M5536 2093 c-6 -14 -5 -15 5 -6 7 7 10 15 7 18 -3 3 -9 -2 -12 -12z"/>
<path d="M1667 2059 c7 -7 15 -10 18 -7 3 3 -2 9 -12 12 -14 6 -15 5 -6 -5z"/>
<path d="M4026 2060 c5 -8 9 -18 9 -22 0 -3 3 -9 7 -13 3 -4 5 0 4 9 -1 9 -8
22 -16 29 -10 10 -11 9 -4 -3z"/>
<path d="M5468 2063 c6 -2 18 -2 25 0 6 3 1 5 -13 5 -14 0 -19 -2 -12 -5z"/>
<path d="M5510 2066 c0 -2 7 -7 16 -10 8 -3 12 -2 9 4 -6 10 -25 14 -25 6z"/>
<path d="M1096 2047 c3 -10 9 -15 12 -12 3 3 0 11 -7 18 -10 9 -11 8 -5 -6z"/>
<path d="M3869 2043 c-13 -16 -12 -17 4 -4 16 13 21 21 13 21 -2 0 -10 -8 -17
-17z"/>
<path d="M510 2039 c0 -5 5 -7 10 -4 6 3 10 8 10 11 0 2 -4 4 -10 4 -5 0 -10
-5 -10 -11z"/>
<path d="M1595 2039 c-4 -6 -4 -13 -1 -16 3 -4 6 -1 6 6 0 7 5 9 12 5 7 -4 8
-3 4 4 -9 15 -13 15 -21 1z"/>
<path d="M3900 2045 c0 -2 6 -8 13 -14 10 -8 14 -7 14 2 0 8 -6 14 -14 14 -7
0 -13 -1 -13 -2z"/>
<path d="M5493 2033 c0 -9 4 -10 14 -2 7 6 13 12 13 14 0 1 -6 2 -13 2 -8 0
-14 -6 -14 -14z"/>
<path d="M1950 2030 c0 -5 5 -10 11 -10 5 0 7 5 4 10 -3 6 -8 10 -11 10 -2 0
-4 -4 -4 -10z"/>
<path d="M1986 2023 c-6 -14 -5 -15 5 -6 7 7 10 15 7 18 -3 3 -9 -2 -12 -12z"/>
<path d="M3836 2031 c-3 -5 1 -11 9 -14 9 -4 12 -1 8 9 -6 16 -10 17 -17 5z"/>
<path d="M285 2020 c-3 -6 1 -7 9 -4 18 7 21 14 7 14 -6 0 -13 -4 -16 -10z"/>
<path d="M956 2022 c-3 -5 1 -9 9 -9 8 0 12 4 9 9 -3 4 -7 8 -9 8 -2 0 -6 -4
-9 -8z"/>
<path d="M3975 2020 c3 -5 8 -10 11 -10 2 0 4 5 4 10 0 6 -5 10 -11 10 -5 0
-7 -4 -4 -10z"/>
<path d="M5454 2022 c3 -5 0 -13 -6 -15 -9 -4 -10 -6 -1 -6 17 -1 25 16 12 25
-7 4 -9 3 -5 -4z"/>
<path d="M993 2005 c0 -8 4 -15 9 -15 4 0 8 4 8 9 0 6 -4 12 -8 15 -5 3 -9 -1
-9 -9z"/>
<path d="M1461 2017 c2 -1 13 -9 24 -17 19 -14 19 -14 6 3 -7 9 -18 17 -24 17
-6 0 -8 -1 -6 -3z"/>
<path d="M4030 2006 c0 -2 7 -7 16 -10 8 -3 12 -2 9 4 -6 10 -25 14 -25 6z"/>
<path d="M854 1982 c6 -10 1 -13 -20 -12 -82 6 -92 -11 -28 -51 19 -11 32 -24
30 -27 -5 -8 65 -14 134 -13 62 2 80 4 80 12 0 11 50 28 67 23 15 -5 15 -4 3
4 -12 9 -11 14 9 31 l24 21 -34 1 c-19 1 -42 0 -53 -1 -13 -1 -16 2 -10 12 6
10 5 11 -7 1 -19 -16 -168 -16 -188 0 -12 10 -13 9 -7 -1z"/>
<path d="M1395 1980 c-4 -6 -24 -10 -46 -8 -47 2 -57 -6 -36 -30 10 -10 14
-22 10 -27 -5 -4 -3 -6 2 -2 16 9 76 -23 68 -37 -3 -6 0 -6 8 2 15 14 33 16
25 3 -3 -5 1 -12 10 -15 23 -9 31 -7 14 4 -10 6 6 8 48 6 39 -2 62 1 62 8 0 6
5 4 10 -4 5 -8 10 -10 10 -5 0 6 14 16 32 24 17 8 39 22 50 33 10 10 24 16 30
12 7 -5 8 -1 1 11 -9 16 -25 18 -124 17 -72 0 -119 4 -128 12 -12 8 -13 8 -7
-1 5 -9 0 -13 -14 -13 -12 0 -18 5 -15 10 3 6 4 10 1 10 -3 0 -8 -5 -11 -10z"/>
<path d="M2010 1982 c0 -10 -16 -13 -65 -10 -40 2 -65 0 -66 -7 -4 -61 -3 -75
9 -75 7 0 10 -4 7 -10 -3 -5 -1 -10 4 -10 6 0 11 4 11 8 0 5 18 8 40 8 22 0
40 -4 40 -8 0 -4 5 -8 11 -8 5 0 8 4 5 9 -4 5 2 8 11 6 10 -1 17 -8 15 -16 -2
-9 0 -10 11 -1 8 7 16 10 18 8 3 -3 2 19 -1 47 -4 37 -9 51 -19 49 -8 -2 -18
3 -22 10 -7 11 -9 11 -9 0z"/>
<path d="M3836 1978 c3 -5 10 -6 15 -3 13 9 11 12 -6 12 -8 0 -12 -4 -9 -9z"/>
<path d="M260 1970 l-44 -5 32 -33 c18 -19 39 -35 47 -36 7 -1 21 -8 31 -16
15 -12 16 -12 9 -1 -6 10 -4 12 6 6 19 -12 79 -14 79 -3 0 5 4 7 10 3 5 -3 6
-13 3 -23 -5 -14 -3 -14 9 2 14 18 33 26 69 29 11 1 15 7 11 17 -3 8 -2 12 3
8 8 -8 48 37 43 48 -3 9 -241 11 -308 4z"/>
<path d="M3814 1958 c-5 -7 -2 -8 6 -3 10 6 12 4 6 -10 -5 -15 -4 -16 9 -5 19
15 19 16 0 23 -8 4 -17 1 -21 -5z"/>
<path d="M5450 1960 c0 -5 9 -8 20 -7 21 1 18 10 -5 13 -8 1 -15 -2 -15 -6z"/>
<path d="M5507 1959 c7 -7 15 -10 18 -7 3 3 -2 9 -12 12 -14 6 -15 5 -6 -5z"/>
<path d="M5380 1929 c0 -8 10 -20 23 -28 l22 -14 -20 24 c-11 13 -21 26 -22
28 -2 2 -3 -2 -3 -10z"/>
<path d="M2073 1915 c0 -8 4 -12 9 -9 5 3 6 10 3 15 -9 13 -12 11 -12 -6z"/>
<path d="M3800 1920 c8 -5 20 -10 25 -10 6 0 3 5 -5 10 -8 5 -19 10 -25 10 -5
0 -3 -5 5 -10z"/>
<path d="M3775 1900 c-3 -5 -3 -10 2 -10 4 0 2 -4 -5 -9 -11 -7 -11 -9 1 -14
10 -4 14 0 12 11 -1 9 3 20 9 24 8 6 8 8 -1 8 -6 0 -15 -4 -18 -10z"/>
<path d="M5350 1900 c0 -5 5 -10 10 -10 6 0 10 5 10 10 0 6 -4 10 -10 10 -5 0
-10 -4 -10 -10z"/>
<path d="M5450 1899 c0 -5 5 -7 10 -4 6 3 10 8 10 11 0 2 -4 4 -10 4 -5 0 -10
-5 -10 -11z"/>
<path d="M1347 1879 c7 -7 15 -10 18 -7 3 3 -2 9 -12 12 -14 6 -15 5 -6 -5z"/>
<path d="M340 1860 c-9 -6 -10 -10 -3 -10 6 0 15 5 18 10 8 12 4 12 -15 0z"/>
<path d="M395 1859 c-4 -6 -4 -13 -1 -16 3 -4 6 -1 6 6 0 7 5 9 12 5 7 -4 8
-3 4 4 -9 15 -13 15 -21 1z"/>
<path d="M472 1861 c2 -19 -4 -24 -13 -11 -8 12 -9 10 -4 -7 6 -22 -7 -26 -32
-10 -6 4 -14 3 -17 -2 -7 -10 -25 -9 -42 2 -6 3 -14 3 -18 0 -3 -4 -23 -8 -43
-10 -47 -4 -49 -7 -15 -22 15 -8 34 -17 43 -22 9 -4 35 -6 58 -5 25 2 38 -1
34 -7 -4 -6 -1 -7 8 -1 8 5 16 9 19 9 12 2 80 34 80 38 0 3 -8 11 -17 18 -11
10 -14 10 -9 2 5 -9 0 -13 -13 -13 -25 0 -26 8 -6 30 13 14 13 17 1 17 -8 0
-15 -3 -14 -6z"/>
<path d="M854 1862 c4 -3 14 -7 22 -8 9 -1 13 0 10 4 -4 3 -14 7 -22 8 -9 1
-13 0 -10 -4z"/>
<path d="M970 1860 c0 -5 5 -10 11 -10 5 0 7 5 4 10 -3 6 -8 10 -11 10 -2 0
-4 -4 -4 -10z"/>
<path d="M1510 1860 c0 -5 5 -10 10 -10 6 0 10 5 10 10 0 6 -4 10 -10 10 -5 0
-10 -4 -10 -10z"/>
<path d="M1947 1853 c3 -7 6 -13 8 -13 2 0 5 6 8 13 3 8 -1 14 -8 14 -7 0 -11
-6 -8 -14z"/>
<path d="M3853 1855 c0 -8 4 -12 9 -9 5 3 6 10 3 15 -9 13 -12 11 -12 -6z"/>
<path d="M5292 1849 c-10 -16 -11 -24 -2 -33 8 -8 9 -6 4 8 -4 12 -4 17 2 13
6 -3 11 3 11 14 2 24 1 24 -15 -2z"/>
<path d="M908 1853 c6 -2 18 -2 25 0 6 3 1 5 -13 5 -14 0 -19 -2 -12 -5z"/>
<path d="M1550 1850 c-10 -6 -11 -10 -2 -10 6 0 12 -3 12 -7 0 -5 -50 -8 -110
-8 -60 0 -110 -3 -110 -6 0 -8 79 -42 100 -43 8 -1 15 -6 15 -13 0 -6 3 -15 7
-19 4 -3 6 2 4 13 -3 12 1 20 10 20 13 0 18 -11 15 -30 -1 -5 3 -6 9 -2 6 3 8
10 5 15 -3 5 0 12 6 16 6 3 15 0 20 -7 5 -8 9 -9 9 -3 0 6 6 11 13 12 20 2 41
8 70 22 32 16 20 29 -24 25 -26 -2 -34 5 -30 28 1 9 -1 9 -19 -3z"/>
<path d="M2013 1854 c11 -19 -15 -31 -66 -29 -31 2 -53 -3 -63 -12 -19 -20 -8
-34 22 -29 13 3 24 0 24 -5 0 -6 4 -7 10 -4 20 12 50 14 50 2 0 -8 3 -8 11 0
6 6 18 9 25 6 18 -7 44 15 38 31 -3 8 -15 11 -31 8 -18 -3 -24 -1 -19 7 4 6
11 9 16 6 5 -3 12 0 16 7 4 7 4 10 -1 6 -4 -4 -15 -2 -23 5 -10 7 -13 8 -9 1z"/>
<path d="M4156 1847 c3 -10 9 -15 12 -12 3 3 0 11 -7 18 -10 9 -11 8 -5 -6z"/>
<path d="M5330 1850 c-9 -6 -10 -10 -3 -10 6 0 15 5 18 10 8 12 4 12 -15 0z"/>
<path d="M5374 1840 c0 -13 4 -16 10 -10 7 7 7 13 0 20 -6 6 -10 3 -10 -10z"/>
<path d="M1022 1839 c3 -15 -22 -19 -39 -7 -6 5 -14 5 -18 -2 -3 -5 -11 -10
-16 -10 -6 0 -7 5 -3 11 4 8 1 8 -12 1 -11 -5 -40 -9 -67 -8 -62 3 -75 -7 -32
-24 19 -8 35 -17 35 -21 0 -4 9 -5 20 -2 11 3 28 -1 37 -8 9 -8 14 -9 10 -2
-5 8 3 11 25 9 25 -2 33 -7 33 -22 0 -16 -8 -19 -58 -22 -42 -2 -57 0 -52 8 4
7 -1 6 -14 -2 -13 -8 -17 -16 -11 -22 14 -14 161 -12 185 2 18 10 17 11 -11
12 -27 0 -31 3 -29 27 0 17 7 27 19 29 28 4 76 25 76 34 0 4 -16 5 -36 3 -21
-2 -33 0 -30 6 4 5 2 13 -4 16 -6 4 -9 1 -8 -6z"/>
<path d="M3720 1841 c0 -5 7 -12 16 -15 14 -5 15 -4 4 9 -14 17 -20 19 -20 6z"/>
<path d="M3814 1836 c1 -8 5 -18 8 -22 4 -3 5 1 4 10 -1 8 -5 18 -8 22 -4 3
-5 -1 -4 -10z"/>
<path d="M5320 1820 c-9 -6 -10 -10 -3 -10 6 0 15 5 18 10 8 12 4 12 -15 0z"/>
<path d="M3690 1800 c0 -7 46 -7 54 0 2 3 -9 6 -25 6 -16 1 -29 -2 -29 -6z"/>
<path d="M5205 1790 c-10 -11 -15 -23 -12 -27 4 -3 7 -1 7 6 0 7 5 9 12 5 6
-4 8 -3 4 4 -3 5 0 12 6 15 7 2 10 7 7 11 -3 3 -14 -3 -24 -14z"/>
<path d="M5255 1800 c-3 -6 1 -7 9 -4 18 7 21 14 7 14 -6 0 -13 -4 -16 -10z"/>
<path d="M3637 1779 c7 -7 15 -10 18 -7 3 3 -2 9 -12 12 -14 6 -15 5 -6 -5z"/>
<path d="M4275 1780 c-3 -5 -1 -10 4 -10 6 0 11 5 11 10 0 6 -2 10 -4 10 -3 0
-8 -4 -11 -10z"/>
<path d="M5265 1780 c-3 -6 1 -7 9 -4 18 7 21 14 7 14 -6 0 -13 -4 -16 -10z"/>
<path d="M5307 1779 c7 -7 15 -10 18 -7 3 3 -2 9 -12 12 -14 6 -15 5 -6 -5z"/>
<path d="M4316 1767 c3 -10 9 -15 12 -12 3 3 0 11 -7 18 -10 9 -11 8 -5 -6z"/>
<path d="M5235 1769 c-4 -6 -5 -12 -2 -15 2 -3 7 2 10 11 7 17 1 20 -8 4z"/>
<path d="M3610 1766 c0 -2 7 -7 16 -10 8 -3 12 -2 9 4 -6 10 -25 14 -25 6z"/>
<path d="M1552 1748 c2 -10 -15 -13 -67 -15 -38 -1 -77 -2 -84 -2 -11 -1 -12
-4 -4 -12 17 -17 154 -19 189 -3 l29 12 -28 1 c-16 1 -26 5 -22 10 3 5 1 13
-5 16 -6 4 -9 1 -8 -7z"/>
<path d="M3587 1746 c-4 -10 1 -12 14 -9 23 6 24 9 5 16 -8 3 -17 0 -19 -7z"/>
<path d="M445 1740 c-3 -5 -39 -8 -81 -7 -62 2 -71 0 -57 -10 16 -12 26 -14
83 -17 14 -1 32 -6 40 -10 8 -5 12 -5 7 0 -4 4 9 14 30 20 37 12 37 12 8 13
-23 1 -27 3 -15 11 9 6 10 10 3 10 -6 0 -14 -4 -18 -10z"/>
<path d="M1970 1742 c0 -8 -10 -13 -22 -12 -42 4 -71 0 -64 -7 13 -14 174 -13
179 0 3 9 -7 11 -35 8 -27 -2 -43 1 -49 10 -7 11 -9 11 -9 1z"/>
<path d="M3515 1740 c-3 -5 -1 -10 4 -10 6 0 11 5 11 10 0 6 -2 10 -4 10 -3 0
-8 -4 -11 -10z"/>
<path d="M3555 1740 c3 -5 2 -10 -3 -10 -6 0 -13 -8 -16 -17 -6 -15 -5 -15 13
1 18 16 20 36 5 36 -3 0 -2 -4 1 -10z"/>
<path d="M3736 1742 c-3 -4 4 -9 15 -9 23 -2 25 3 4 10 -8 4 -16 3 -19 -1z"/>
<path d="M5150 1740 c0 -5 5 -10 11 -10 5 0 7 5 4 10 -3 6 -8 10 -11 10 -2 0
-4 -4 -4 -10z"/>
<path d="M5186 1742 c-3 -5 1 -9 9 -9 8 0 12 4 9 9 -3 4 -7 8 -9 8 -2 0 -6 -4
-9 -8z"/>
<path d="M3447 1719 c7 -7 15 -10 18 -7 3 3 -2 9 -12 12 -14 6 -15 5 -6 -5z"/>
<path d="M3485 1720 c3 -5 8 -10 11 -10 2 0 4 5 4 10 0 6 -5 10 -11 10 -5 0
-7 -4 -4 -10z"/>
<path d="M3395 1709 c-4 -6 -5 -12 -2 -15 2 -3 7 2 10 11 7 17 1 20 -8 4z"/>
<path d="M5030 1710 c8 -5 20 -10 25 -10 6 0 3 5 -5 10 -8 5 -19 10 -25 10 -5
0 -3 -5 5 -10z"/>
<path d="M2546 1702 c-3 -5 1 -9 9 -9 8 0 12 4 9 9 -3 4 -7 8 -9 8 -2 0 -6 -4
-9 -8z"/>
<path d="M2637 1699 c7 -7 15 -10 18 -7 3 3 -2 9 -12 12 -14 6 -15 5 -6 -5z"/>
<path d="M2953 1695 c-3 -9 -3 -18 -1 -21 3 -3 8 4 11 16 6 23 -1 27 -10 5z"/>
<path d="M2995 1700 c-3 -5 -1 -10 4 -10 6 0 11 5 11 10 0 6 -2 10 -4 10 -3 0
-8 -4 -11 -10z"/>
<path d="M3037 1699 c7 -7 15 -10 18 -7 3 3 -2 9 -12 12 -14 6 -15 5 -6 -5z"/>
<path d="M3190 1700 c-9 -6 -10 -10 -3 -10 6 0 15 5 18 10 8 12 4 12 -15 0z"/>
<path d="M3270 1700 c-9 -6 -10 -10 -3 -10 6 0 15 5 18 10 8 12 4 12 -15 0z"/>
<path d="M3430 1705 c5 -21 -1 -29 -10 -15 -7 12 -9 10 -7 -7 1 -15 5 -19 13
-13 6 6 13 7 17 4 3 -3 4 1 3 10 -1 8 -6 19 -10 23 -4 4 -7 4 -6 -2z"/>
<path d="M3587 1699 c7 -7 15 -10 18 -7 3 3 -2 9 -12 12 -14 6 -15 5 -6 -5z"/>
<path d="M4990 1700 c0 -5 5 -10 10 -10 6 0 10 5 10 10 0 6 -4 10 -10 10 -5 0
-10 -4 -10 -10z"/>
<path d="M5080 1700 c8 -5 20 -10 25 -10 6 0 3 5 -5 10 -8 5 -19 10 -25 10 -5
0 -3 -5 5 -10z"/>
<path d="M2891 1684 c0 -11 3 -14 6 -6 3 7 2 16 -1 19 -3 4 -6 -2 -5 -13z"/>
<path d="M3073 1687 c0 -8 6 -14 14 -14 9 0 10 4 2 14 -6 7 -12 13 -14 13 -1
0 -2 -6 -2 -13z"/>
<path d="M3108 1693 c6 -2 18 -2 25 0 6 3 1 5 -13 5 -14 0 -19 -2 -12 -5z"/>
<path d="M4630 1689 c0 -5 5 -7 10 -4 6 3 10 8 10 11 0 2 -4 4 -10 4 -5 0 -10
-5 -10 -11z"/>
<path d="M4674 1684 c1 -8 8 -20 16 -27 12 -10 12 -9 2 5 -10 13 -10 17 0 20
8 3 7 6 -4 10 -10 4 -15 2 -14 -8z"/>
<path d="M2610 1678 c0 -6 3 -8 7 -5 3 4 13 1 22 -6 14 -11 14 -10 2 6 -15 20
-31 22 -31 5z"/>
<path d="M2724 1679 c-4 -7 -3 -9 4 -5 5 3 13 0 15 -6 4 -9 6 -10 6 -1 1 17
-16 25 -25 12z"/>
<path d="M3017 1676 c-4 -10 -1 -13 8 -9 8 3 12 9 9 14 -7 12 -11 11 -17 -5z"/>
<path d="M3199 1673 c-13 -17 -13 -17 6 -3 11 8 22 16 24 17 2 2 0 3 -6 3 -6
0 -17 -8 -24 -17z"/>
<path d="M4537 1675 c-4 -8 -3 -16 1 -19 4 -3 9 4 9 15 2 23 -3 25 -10 4z"/>
<path d="M4760 1675 c-7 -8 -9 -15 -5 -15 5 0 0 -9 -9 -19 -14 -15 -15 -21 -4
-27 7 -4 10 -3 5 1 -4 5 0 17 10 27 9 10 13 18 8 18 -4 0 -2 7 5 15 7 8 10 15
7 15 -2 0 -10 -7 -17 -15z"/>
<path d="M4850 1682 c0 -5 7 -9 15 -9 8 0 12 4 9 9 -3 4 -9 8 -15 8 -5 0 -9
-4 -9 -8z"/>
<path d="M4950 1680 c0 -5 5 -10 11 -10 5 0 7 5 4 10 -3 6 -8 10 -11 10 -2 0
-4 -4 -4 -10z"/>
<path d="M3117 1669 c7 -7 15 -10 18 -7 3 3 -2 9 -12 12 -14 6 -15 5 -6 -5z"/>
<path d="M2672 1651 c7 -9 13 -18 15 -20 1 -2 1 5 0 16 0 11 -7 20 -14 20 -10
0 -10 -4 -1 -16z"/>
<path d="M2780 1666 c0 -2 8 -10 18 -17 15 -13 16 -12 3 4 -13 16 -21 21 -21
13z"/>
<path d="M2847 1659 c7 -7 15 -10 18 -7 3 3 -2 9 -12 12 -14 6 -15 5 -6 -5z"/>
<path d="M3158 1663 c7 -3 16 -2 19 1 4 3 -2 6 -13 5 -11 0 -14 -3 -6 -6z"/>
<path d="M3220 1666 c0 -2 8 -10 18 -17 15 -13 16 -12 3 4 -13 16 -21 21 -21
13z"/>
<path d="M3270 1656 c7 -7 13 -7 20 0 6 6 3 10 -10 10 -13 0 -16 -4 -10 -10z"/>
<path d="M3535 1660 c3 -5 8 -10 11 -10 2 0 4 5 4 10 0 6 -5 10 -11 10 -5 0
-7 -4 -4 -10z"/>
<path d="M4433 1655 c0 -8 4 -12 9 -9 5 3 6 10 3 15 -9 13 -12 11 -12 -6z"/>
<path d="M4720 1660 c-9 -6 -10 -10 -3 -10 6 0 15 5 18 10 8 12 4 12 -15 0z"/>
<path d="M4833 1663 c4 -3 1 -13 -6 -22 -11 -14 -10 -14 5 -2 16 12 16 31 1
31 -4 0 -3 -3 0 -7z"/>
<path d="M5030 1659 c0 -5 5 -7 10 -4 6 3 10 8 10 11 0 2 -4 4 -10 4 -5 0 -10
-5 -10 -11z"/>
<path d="M2573 1645 c0 -8 4 -12 9 -9 5 3 6 10 3 15 -9 13 -12 11 -12 -6z"/>
<path d="M2616 1647 c3 -10 9 -15 12 -12 3 3 0 11 -7 18 -10 9 -11 8 -5 -6z"/>
<path d="M2890 1656 c0 -2 8 -10 18 -17 15 -13 16 -12 3 4 -13 16 -21 21 -21
13z"/>
<path d="M3094 1640 c0 -13 4 -16 10 -10 7 7 7 13 0 20 -6 6 -10 3 -10 -10z"/>
<path d="M4650 1656 c0 -2 8 -10 18 -17 15 -13 16 -12 3 4 -13 16 -21 21 -21
13z"/>
<path d="M2355 1641 c-3 -5 -2 -12 3 -15 5 -3 9 1 9 9 0 17 -3 19 -12 6z"/>
<path d="M2520 1640 c-9 -6 -10 -10 -3 -10 6 0 15 5 18 10 8 12 4 12 -15 0z"/>
<path d="M2720 1640 c-9 -6 -10 -10 -3 -10 6 0 15 5 18 10 8 12 4 12 -15 0z"/>
<path d="M2769 1637 c6 -8 7 -18 3 -22 -4 -5 -1 -5 6 -1 10 6 10 11 1 22 -6 8
-14 14 -16 14 -3 0 0 -6 6 -13z"/>
<path d="M4626 1642 c-3 -5 1 -9 9 -9 8 0 12 4 9 9 -3 4 -7 8 -9 8 -2 0 -6 -4
-9 -8z"/>
<path d="M3270 1636 c0 -2 8 -10 18 -17 15 -13 16 -12 3 4 -13 16 -21 21 -21
13z"/>
<path d="M4775 1631 c-3 -5 -2 -12 3 -15 5 -3 9 1 9 9 0 17 -3 19 -12 6z"/>
<path d="M2836 1622 c-3 -5 1 -9 9 -9 8 0 12 4 9 9 -3 4 -7 8 -9 8 -2 0 -6 -4
-9 -8z"/>
<path d="M3036 1622 c-3 -5 1 -9 9 -9 8 0 12 4 9 9 -3 4 -7 8 -9 8 -2 0 -6 -4
-9 -8z"/>
<path d="M4855 1620 c3 -5 8 -10 11 -10 2 0 4 5 4 10 0 6 -5 10 -11 10 -5 0
-7 -4 -4 -10z"/>
<path d="M4935 1620 c3 -5 8 -10 11 -10 2 0 4 5 4 10 0 6 -5 10 -11 10 -5 0
-7 -4 -4 -10z"/>
<path d="M2665 1600 c-3 -6 1 -7 9 -4 18 7 21 14 7 14 -6 0 -13 -4 -16 -10z"/>
<path d="M2990 1599 c0 -5 5 -7 10 -4 6 3 10 8 10 11 0 2 -4 4 -10 4 -5 0 -10
-5 -10 -11z"/>
<path d="M2516 1558 c3 -5 10 -6 15 -3 13 9 11 12 -6 12 -8 0 -12 -4 -9 -9z"/>
</g>
</svg>
